<svg width="395" height="440" viewBox="0 0 395 440" fill="none" xmlns="http://www.w3.org/2000/svg">
<circle cx="-12.1079" cy="130.893" r="298.659" transform="rotate(29.1021 -12.1079 130.893)" stroke="#0A0A0A"/>
<path d="M144.29 217.95C64.0128 362.168 -94.4815 426.852 -209.644 362.747C-324.807 298.643 -353.34 129.852 -273.063 -14.3653C-192.785 -158.583 -34.2909 -223.266 80.872 -159.162C196.035 -95.0577 224.567 73.7332 144.29 217.95Z" stroke="#0A0A0A"/>
<path d="M39.7336 159.75C-0.409014 231.866 -54.2788 287.37 -108.9 318.822C-163.531 350.279 -218.828 357.635 -261.923 333.647C-305.018 309.659 -327.901 258.784 -329.949 195.777C-331.996 132.781 -313.205 57.7504 -273.063 -14.3653C-232.92 -86.481 -179.05 -141.985 -124.429 -173.437C-69.7979 -204.895 -14.5013 -212.251 28.5937 -188.262C71.6887 -164.274 94.5719 -113.4 96.6198 -50.3922C98.6674 12.6038 79.8762 87.6342 39.7336 159.75Z" stroke="#0A0A0A"/>
<path d="M-64.8231 101.549C-104.979 173.689 -153.019 232.469 -198.21 269.19C-220.807 287.551 -242.671 300.381 -262.462 306.62C-282.252 312.858 -299.924 312.494 -314.201 304.547C-328.478 296.599 -338.099 281.771 -343.224 261.664C-348.349 241.556 -348.965 216.214 -345.264 187.333C-337.865 129.576 -313.219 57.7746 -273.063 -14.3653C-232.906 -86.5052 -184.866 -145.285 -139.675 -182.006C-117.079 -200.367 -95.2149 -213.197 -75.4235 -219.435C-55.6335 -225.674 -37.9621 -225.31 -23.6846 -217.363C-9.40721 -209.415 0.212935 -194.587 5.33798 -174.48C10.4634 -154.372 11.0789 -129.029 7.37894 -100.149C-0.020682 -42.3919 -24.667 29.4095 -64.8231 101.549Z" stroke="#0A0A0A"/>
</svg>
