<svg xmlns="http://www.w3.org/2000/svg" viewBox="0 0 963.87 123.69">
  <defs>
    <style>
      .cls-1 {
        fill: #fff;
      }
    </style>
  </defs>
  <g id="Livello_2" data-name="Livello 2">
    <g id="Livello_1-2" data-name="Livello 1">
      <g>
        <g>
          <path class="cls-1" d="M214.6,40.76V1h13.67V97.39H214.6V87.5q-8.85,11.19-23.7,11.2a31,31,0,0,1-23.37-9.9q-9.43-9.9-9.44-24.61t9.44-24.67a30.93,30.93,0,0,1,23.37-10Q205.75,29.56,214.6,40.76ZM193.38,86.07a20.29,20.29,0,0,0,15.17-6.25,21.6,21.6,0,0,0,6-15.63,21.74,21.74,0,0,0-6-15.75,21.39,21.39,0,0,0-30.28.06,21.65,21.65,0,0,0-6.11,15.69,21.45,21.45,0,0,0,6.11,15.63A20.34,20.34,0,0,0,193.38,86.07Z"/>
          <path class="cls-1" d="M244.48,17.71a8.07,8.07,0,0,1-2.54-6,8.07,8.07,0,0,1,2.54-6,8.37,8.37,0,0,1,6.06-2.47,8.16,8.16,0,0,1,6,2.47,8.2,8.2,0,0,1,2.47,6,8.2,8.2,0,0,1-2.47,6,8.16,8.16,0,0,1-6,2.47A8.37,8.37,0,0,1,244.48,17.71Zm12.83,79.68H243.64V30.86h13.67Z"/>
          <path class="cls-1" d="M348.45,29.56q11.71,0,19.14,7.94T375,57.68V97.39H361.34V59.77A18.67,18.67,0,0,0,357,47.07a14.59,14.59,0,0,0-22,0,18.62,18.62,0,0,0-4.36,12.7V97.39H316.94V59.77q0-7.69-4.3-12.7a13.76,13.76,0,0,0-10.93-5,14,14,0,0,0-11,5,18.62,18.62,0,0,0-4.36,12.7V97.39H272.67V30.86h13.67v8.85q7.29-10.16,19.27-10.15A23.35,23.35,0,0,1,326.7,41.93a26.24,26.24,0,0,1,9.18-9A24.35,24.35,0,0,1,348.45,29.56Z"/>
          <path class="cls-1" d="M385.82,79.82,399.49,77q1.81,10.68,14.58,10.68,6.51,0,10.48-2.54t4-6.45c0-2.77-1.39-4.88-4.16-6.31A34.55,34.55,0,0,0,414.2,69.2q-6-1-12-2.4a20.72,20.72,0,0,1-10.22-5.67q-4.17-4.23-4.17-11.39,0-8.72,7.49-14.45t18.81-5.73q11.32,0,18.55,5.08a20.2,20.2,0,0,1,8.66,13.8L427.61,51.3q-1.56-10.66-13.54-10.68a15.87,15.87,0,0,0-9,2.35,7.07,7.07,0,0,0-3.52,6.12,6.39,6.39,0,0,0,3,5.47,17.32,17.32,0,0,0,7.56,2.73q4.54.66,9.83,2t9.83,2.93a15.72,15.72,0,0,1,7.55,5.8,17.36,17.36,0,0,1,3,10.41q0,8.73-8.13,14.52t-20.12,5.8q-11.85,0-19.27-5.08A20.52,20.52,0,0,1,385.82,79.82Z"/>
          <path class="cls-1" d="M461.33,88.8q-10.15-9.9-10.15-24.61a33.17,33.17,0,0,1,10.15-24.67q10.16-10,25.13-10t25.13,10a33.17,33.17,0,0,1,10.16,24.67A33,33,0,0,1,511.59,88.8q-10.15,9.9-25.13,9.9T461.33,88.8Zm10-40.3a21.66,21.66,0,0,0-6.12,15.69,21.45,21.45,0,0,0,6.12,15.63,21.45,21.45,0,0,0,30.27,0,21.56,21.56,0,0,0,6.05-15.63,21.7,21.7,0,0,0-6.05-15.75,21.38,21.38,0,0,0-30.27.06Z"/>
          <path class="cls-1" d="M533.21,69.79V30.86h13.67V69.79a15.58,15.58,0,0,0,4.68,11.78,16.6,16.6,0,0,0,12,4.5,16.4,16.4,0,0,0,11.85-4.5,15.55,15.55,0,0,0,4.69-11.78V30.86h13.67V69.79q0,12.76-8.53,20.83T563.54,98.7q-13.27,0-21.81-8.08T533.21,69.79Z"/>
        </g>
        <g>
          <path class="cls-1" d="M666.1,44V0h7.16V96.35H666.1V83.2a31.28,31.28,0,0,1-11.59,10.61,33.06,33.06,0,0,1-15.88,3.84q-14.32,0-24-9.76T605,63.67q0-14.58,9.64-24.35t24-9.76a33.06,33.06,0,0,1,15.88,3.84A31.28,31.28,0,0,1,666.1,44ZM619.94,83.07a27.52,27.52,0,0,0,38.41,0,26.43,26.43,0,0,0,7.75-19.4,26.69,26.69,0,0,0-7.75-19.47,27.37,27.37,0,0,0-38.41,0,26.72,26.72,0,0,0-7.74,19.47A26.46,26.46,0,0,0,619.94,83.07Z"/>
          <path class="cls-1" d="M690.84,14.45a4.74,4.74,0,0,1-1.43-3.51,4.95,4.95,0,1,1,9.89,0,5,5,0,0,1-8.46,3.51ZM698,96.35h-7.16V30.86H698Z"/>
          <path class="cls-1" d="M774,44V30.86h7.16V89.71q0,14.46-9.83,24.22T747,123.69a33.57,33.57,0,0,1-18.88-5.4,33.11,33.11,0,0,1-12.23-14.39l6.64-2.73a26.64,26.64,0,0,0,9.7,11.59,27.54,27.54,0,0,0,34-3.58A26.57,26.57,0,0,0,774,89.71V82.94a31.43,31.43,0,0,1-11.59,10.61,33.1,33.1,0,0,1-15.89,3.84q-14.32,0-23.95-9.76T713,63.41a32.94,32.94,0,0,1,9.64-24.09q9.63-9.76,23.95-9.76a33.1,33.1,0,0,1,15.89,3.84A31.43,31.43,0,0,1,774,44Zm-46.16,38.8a27.52,27.52,0,0,0,38.41,0A26.47,26.47,0,0,0,774,63.41a26.46,26.46,0,0,0-27-27.08,25.94,25.94,0,0,0-19.2,7.81,26.28,26.28,0,0,0-7.75,19.27A26.43,26.43,0,0,0,727.88,82.81Z"/>
          <path class="cls-1" d="M798.77,14.45a4.77,4.77,0,0,1-1.43-3.51,5,5,0,1,1,9.9,0,5,5,0,0,1-8.47,3.51Zm7.17,81.9h-7.17V30.86h7.17Z"/>
          <path class="cls-1" d="M833.54,37.5H818.3V30.86h15.24V6.12l7.16-2.21v27h20.83V37.5H840.7V74.87q0,8.07,3.38,11.45t11.33,3.39h6.12v6.64h-6.12q-11.2,0-16.53-5.27t-5.34-16.34Z"/>
          <path class="cls-1" d="M932,44V30.86h7.16V96.35H932V83.2a31.28,31.28,0,0,1-11.59,10.61,33.06,33.06,0,0,1-15.88,3.84q-14.32,0-24-9.76T870.9,63.67q0-14.58,9.64-24.35t24-9.76a33.06,33.06,0,0,1,15.88,3.84A31.28,31.28,0,0,1,932,44ZM885.81,83.07a27.52,27.52,0,0,0,38.41,0A26.43,26.43,0,0,0,932,63.67a26.69,26.69,0,0,0-7.75-19.47,27.37,27.37,0,0,0-38.41,0,26.72,26.72,0,0,0-7.74,19.47A26.46,26.46,0,0,0,885.81,83.07Z"/>
          <path class="cls-1" d="M963.87,96.35h-7.16V0h7.16Z"/>
        </g>
        <path class="cls-1" d="M124.78,60.54h0a40.24,40.24,0,0,1-20.13,34.86L65.59,118V87l45.78-26.43L65.59,34.11v-31l39.06,22.56A40.22,40.22,0,0,1,124.78,60.54Z"/>
        <path class="cls-1" d="M59.19,60.54h0A40.26,40.26,0,0,1,39.06,95.41L0,118V87L45.78,60.54,0,34.11v-31L39.06,25.68A40.24,40.24,0,0,1,59.19,60.54Z"/>
      </g>
    </g>
  </g>
</svg>
