<?xml version="1.0" standalone="no"?>
<!DOCTYPE svg PUBLIC "-//W3C//DTD SVG 1.1//EN" "http://www.w3.org/Graphics/SVG/1.1/DTD/svg11.dtd" >
<svg xmlns="http://www.w3.org/2000/svg" xmlns:xlink="http://www.w3.org/1999/xlink" version="1.1">
<metadata></metadata>
<defs>
<font id="eudoxus_sansregular" horiz-adv-x="1173" >
<font-face units-per-em="2048" ascent="1638" descent="-410" />
<missing-glyph horiz-adv-x="348" />
<glyph unicode="&#xfb01;" horiz-adv-x="1191" d="M270 944h-219v154h219v98q0 111 50.5 190.5t134.5 121.5t182 42q53 0 90 -10v-139q-27 6 -74 6q-106 0 -167.5 -50t-61.5 -161v-98h641v-1098h-154v944h-487v-944h-154v944z" />
<glyph unicode="&#xfb02;" horiz-adv-x="1273" d="M270 944h-219v154h219v98q0 111 50.5 190.5t134.5 121.5t182 42q53 0 90 -10v-139q-27 6 -74 6q-106 0 -167.5 -50t-61.5 -161v-98h539v452h153v-1550h-153v944h-539v-944h-154v944z" />
<glyph horiz-adv-x="0" />
<glyph unicode="&#xd;" horiz-adv-x="348" />
<glyph unicode=" "  horiz-adv-x="348" />
<glyph unicode="&#x09;" horiz-adv-x="348" />
<glyph unicode="&#xa0;" horiz-adv-x="348" />
<glyph unicode="!" horiz-adv-x="577" d="M207 1526h164l-11 -1088h-143zM219 170q29 29 70 29t69.5 -28t28.5 -71t-27.5 -71.5t-70.5 -28.5q-41 0 -70 28.5t-29 71.5q0 41 29 70z" />
<glyph unicode="&#x22;" horiz-adv-x="808" d="M168 1526h164l-25 -447h-112zM639 1526l-25 -447h-112l-27 447h164z" />
<glyph unicode="#" horiz-adv-x="1617" d="M326 399h-246v144h287l127 440h-246v143h287l114 400h164l-115 -400h430l115 400h164l-115 -400h246v-143h-287l-127 -440h246v-144h-287l-114 -399h-164l115 399h-431l-114 -399h-164zM961 543l126 440h-430l-127 -440h431z" />
<glyph unicode="$" horiz-adv-x="1323" d="M606 -18q-182 25 -314 136t-179 267l147 55q45 -131 133 -209.5t213 -101.5v569l-94 29q-160 47 -248 156.5t-88 253.5q0 115 55.5 207t153.5 146t221 60v181h144v-191q156 -29 268 -126t156 -228l-144 -58q-39 104 -109.5 171t-170.5 92v-572l73 -22q365 -109 365 -406 q0 -113 -55.5 -203t-154.5 -145t-228 -66v-182h-144v187zM401.5 979q61.5 -74 180.5 -111l24 -8v543q-121 -8 -193.5 -75.5t-72.5 -178.5q0 -96 61.5 -170zM949 205.5q75 66.5 75 171.5q0 109 -59.5 171t-178.5 97l-36 10v-530q124 14 199 80.5z" />
<glyph unicode="%" horiz-adv-x="1994" d="M1532 1526h199l-1250 -1526h-198zM159.5 1352q53.5 92 145.5 145t201 53t200 -53t144 -145t53 -201t-53 -201t-144.5 -145t-199.5 -53q-109 0 -201 53t-145.5 145t-53.5 201t53.5 201zM293 1029q33 -58 89 -94t124 -36t124 36t88 93t32 123t-32 123t-88.5 93t-123.5 36 q-68 0 -124 -36t-89 -94.5t-33 -121.5q0 -64 33 -122zM1143 575.5q53 92.5 145 145.5t201 53t200 -53t144 -145.5t53 -200.5q0 -109 -53 -201t-144.5 -145.5t-199.5 -53.5q-109 0 -201 53.5t-145 145.5t-53 201q0 108 53 200.5zM1276 253q33 -58 89 -94t124 -36t124 36 t88 93t32 123t-32 123t-88.5 93t-123.5 36q-68 0 -124 -36t-89 -94.5t-33 -121.5q0 -64 33 -122z" />
<glyph unicode="&#x26;" horiz-adv-x="1503" d="M321.5 22.5q-96.5 47.5 -151.5 134.5t-55 199q0 168 94 270.5t211 176.5l4 2q-86 94 -137 185t-51 200q0 102 49 185t132 129t183 46q98 0 180 -45t131.5 -126t49.5 -181q0 -143 -85 -240.5t-202 -171.5l301 -315l190 285h187l-265 -404l336 -352h-219l-211 217 q-86 -109 -194.5 -175.5t-257.5 -66.5q-123 0 -219.5 47.5zM359.5 189.5q70.5 -62.5 185.5 -62.5q113 0 189.5 54.5t146.5 152.5l-351 362l-8 -6q-96 -59 -164.5 -136t-68.5 -194q0 -108 70.5 -170.5zM444 1049.5q45 -70.5 125 -154.5q98 59 165 133t67 170 q0 86 -57.5 143.5t-143.5 57.5q-88 0 -144.5 -57.5t-56.5 -145.5q0 -76 45 -146.5z" />
<glyph unicode="'" horiz-adv-x="501" d="M168 1526h164l-25 -447h-112z" />
<glyph unicode="(" horiz-adv-x="604" d="M182 129q-84 231 -84 492q0 262 85 492t247 413h133q-147 -205 -224 -436.5t-77 -468.5q0 -238 77 -469.5t224 -438.5h-133q-164 185 -248 416z" />
<glyph unicode=")" horiz-adv-x="604" d="M265 151.5q77 231.5 77 469.5t-77 469t-224 436h133q162 -182 247 -412.5t85 -492.5q0 -260 -84 -491.5t-248 -416.5h-133q147 207 224 438.5z" />
<glyph unicode="*" horiz-adv-x="980" d="M193 870l176 234l-260 88l45 139l262 -86v281h147v-281l262 86l45 -139l-260 -88l176 -234l-118 -86l-179 234l-178 -234z" />
<glyph unicode="+" horiz-adv-x="1241" d="M545 436h-436v154h436v434h153v-434h435v-154h-435v-436h-153v436z" />
<glyph unicode="," horiz-adv-x="552" d="M293 0q-41 0 -68.5 25.5t-27.5 64.5t25.5 64.5t64.5 25.5t64.5 -34.5t25.5 -86.5q0 -133 -55.5 -217t-157.5 -108v61q123 33 129 205z" />
<glyph unicode="-" horiz-adv-x="1019" d="M152 621h716v-144h-716v144z" />
<glyph unicode="." horiz-adv-x="585" d="M223.5 28.5q-28.5 28.5 -28.5 73.5t28.5 74t69.5 29t69.5 -29t28.5 -74t-27.5 -73.5t-70.5 -28.5q-41 0 -69.5 28.5z" />
<glyph unicode="/" horiz-adv-x="878" d="M696 1608h178l-692 -1690h-178z" />
<glyph unicode="0" horiz-adv-x="1499" d="M436 73.5q-137 98.5 -213 277.5t-76 413q0 233 76 411.5t212 276.5t315 98q178 0 314 -98t212 -276.5t76 -411.5t-75 -412.5t-211 -278t-314 -98.5q-179 0 -316 98.5zM366.5 432q55.5 -143 155 -223t230.5 -80q129 0 228 79t154.5 223t55.5 333q0 188 -55.5 331.5 t-154.5 222.5t-230 79q-129 0 -228.5 -79t-155 -222.5t-55.5 -331.5q0 -189 55.5 -332z" />
<glyph unicode="1" horiz-adv-x="759" d="M371 1382h-287v144h451v-1526h-164v1382z" />
<glyph unicode="2" horiz-adv-x="1228" d="M119 102l426 469l61 68q125 135 181.5 204.5t87 136.5t30.5 142q0 135 -78.5 210t-214.5 75q-137 0 -230 -78t-126 -217l-150 33q41 186 176.5 295.5t327.5 109.5q135 0 238.5 -54t162 -152.5t58.5 -221.5q0 -121 -72.5 -235.5t-255.5 -317.5l-387 -426h756v-143h-991 v102z" />
<glyph unicode="3" horiz-adv-x="1247" d="M288 65.5q-136 90.5 -194 247.5l131 62q47 -119 147.5 -187.5t229.5 -68.5q158 0 255 90t97 250q0 158 -99 248t-255 90q-57 0 -111 -9l-32 72l411 522h-702v144h887v-144l-367 -460q193 -20 312.5 -146.5t119.5 -316.5q0 -135 -65.5 -245t-183 -174.5t-267.5 -64.5 q-178 0 -314 90.5z" />
<glyph unicode="4" horiz-adv-x="1290" d="M870 360h-776v134l776 1032h144v-1032h186v-134h-186v-360h-144v360zM870 494v809l-606 -809h606z" />
<glyph unicode="5" horiz-adv-x="1261" d="M302 66.5q-138 91.5 -196 246.5l125 62q47 -117 154 -186.5t233 -69.5q98 0 178.5 47t125.5 128t45 181q0 102 -46.5 183t-125 127t-174.5 46q-98 0 -184.5 -45t-125.5 -112l-129 24l115 830h772v-144h-657l-70 -493q121 88 287 88q143 0 257.5 -67.5t179 -183.5 t64.5 -253q0 -141 -66.5 -255t-183 -179.5t-262.5 -65.5q-178 0 -316 91.5z" />
<glyph unicode="6" horiz-adv-x="1222" d="M360.5 39.5q-112.5 64.5 -175 179.5t-62.5 260q0 240 176 475l430 572h197l-480 -627q74 45 189 45q131 0 239.5 -62.5t170 -173t61.5 -249.5q0 -137 -64.5 -247t-176 -173.5t-251.5 -63.5q-141 0 -253.5 64.5zM330 284.5q43 -77.5 117.5 -121.5t166.5 -44t167 44 t118 121.5t43 174.5q0 96 -42 173t-116.5 121t-169.5 44q-94 0 -168.5 -44t-116.5 -121t-42 -173q0 -97 43 -174.5z" />
<glyph unicode="7" horiz-adv-x="1112" d="M850 1384h-762v144h932v-144l-686 -1384h-172z" />
<glyph unicode="8" horiz-adv-x="1286" d="M381 35.5q-117 60.5 -183.5 166t-66.5 238.5t69.5 240.5t190.5 161.5q-86 51 -133 135t-47 180q0 111 56.5 201t155.5 141t220 51q123 0 221.5 -50t153.5 -140t55 -203q0 -100 -47 -182t-131 -133q121 -53 190.5 -161t69.5 -241t-66.5 -238.5t-183.5 -166t-262 -60.5 t-262 60.5zM391 207q96 -88 252 -88t252 88t96 233t-96 233.5t-252 88.5t-252 -88t-96 -234q0 -145 96 -233zM451.5 974.5q76.5 -69.5 191.5 -69.5t190.5 69.5t75.5 182.5q0 111 -75.5 180.5t-190.5 69.5t-191.5 -69.5t-76.5 -180.5q0 -113 76.5 -182.5z" />
<glyph unicode="9" horiz-adv-x="1222" d="M776 627q-74 -45 -188 -45q-131 0 -239.5 62.5t-170 173t-61.5 249.5q0 137 64.5 246.5t176 173t250.5 63.5q141 0 254 -64.5t175.5 -179t62.5 -259.5q0 -240 -176 -476l-430 -571h-197zM323 894q42 -77 116.5 -121t168.5 -44t169 44t117 121t42 173t-43 174t-118 122 t-167 44t-166.5 -44t-117.5 -122t-43 -174t42 -173z" />
<glyph unicode=":" horiz-adv-x="585" d="M216 31.5q-32 31.5 -32 77.5q0 47 32 77.5t77 30.5q47 0 77.5 -30.5t30.5 -77.5t-30.5 -78t-77.5 -31q-45 0 -77 31.5zM216 1067q32 31 77 31q47 0 77.5 -31t30.5 -78t-30.5 -77.5t-77.5 -30.5q-45 0 -77 31.5t-32 76.5q0 47 32 78z" />
<glyph unicode=";" horiz-adv-x="626" d="M255 912.5q-32 31.5 -32 76.5q0 47 32 78t77 31q47 0 77.5 -31t30.5 -78t-30.5 -77.5t-77.5 -30.5q-45 0 -77 31.5zM201 -205q123 33 129 205q-41 0 -69 25.5t-28 64.5t26 64.5t65 25.5t64.5 -34.5t25.5 -86.5q0 -133 -55.5 -217t-157.5 -108v61z" />
<glyph unicode="&#x3c;" horiz-adv-x="1134" d="M147 479v139l840 400v-166l-661 -303l661 -303v-166z" />
<glyph unicode="=" horiz-adv-x="1372" d="M225 831h922v-153h-922v153zM225 350h922v-153h-922v153z" />
<glyph unicode="&#x3e;" horiz-adv-x="1099" d="M147 246l662 303l-662 303v166l840 -400v-139l-840 -399v166z" />
<glyph unicode="?" horiz-adv-x="1021" d="M399.5 669q57.5 87 167.5 191q72 68 110 110t64.5 96t26.5 118q0 92 -67.5 157.5t-182.5 65.5t-196.5 -71.5t-104.5 -190.5l-145 31q29 170 150.5 272t295.5 102q119 0 214 -50t147.5 -134t52.5 -182q0 -78 -30 -142.5t-73 -114.5t-116 -122l-37 -37q-82 -82 -126 -152.5 t-44 -156.5v-21h-164v21q0 123 57.5 210zM360.5 170q28.5 29 69.5 29t69.5 -28t28.5 -71t-27.5 -71.5t-70.5 -28.5q-41 0 -69.5 28.5t-28.5 71.5q0 41 28.5 70z" />
<glyph unicode="@" horiz-adv-x="1902" d="M555 -30.5q-195 112.5 -307.5 307t-112.5 430.5q0 233 113.5 426.5t308.5 305t430 111.5q240 0 434.5 -116.5t304 -309t109.5 -409.5q0 -197 -90 -315.5t-248 -118.5q-84 0 -153.5 38.5t-102.5 106.5q-49 -70 -127 -107.5t-174 -37.5q-119 0 -214 57t-150.5 156.5 t-55.5 222.5t55.5 223t151.5 157.5t213 57.5q92 0 171 -36t130 -99v115h133v-566q0 -145 125 -145q88 0 135 72.5t47 214.5q0 195 -89 354.5t-246.5 250.5t-358.5 91q-199 0 -357.5 -91t-249.5 -250t-91 -357q0 -195 89 -358t248.5 -257t364.5 -94q190 0 334 78l66 -123 q-84 -47 -188.5 -72.5t-215.5 -25.5q-237 0 -432 112.5zM751.5 508q77.5 -84 194.5 -84q119 0 197 84t78 211q0 125 -78 207t-197 82t-195.5 -82t-76.5 -209q0 -125 77.5 -209z" />
<glyph unicode="A" horiz-adv-x="1335" d="M580 1526h176l557 -1526h-172l-131 373h-682l-133 -373h-172zM952 526l-284 807l-287 -807h571z" />
<glyph unicode="B" horiz-adv-x="1419" d="M180 1526h641q193 0 308.5 -105.5t115.5 -277.5q0 -104 -45 -187.5t-129 -134.5q111 -57 173.5 -156.5t62.5 -220.5q0 -205 -130 -324.5t-354 -119.5h-643v1526zM823 154q145 0 232.5 77.5t87.5 210.5q0 131 -87 211t-233 80h-479v-579h479zM809 881q123 0 197.5 71.5 t74.5 184.5t-73.5 174t-198.5 61h-465v-491h465z" />
<glyph unicode="C" horiz-adv-x="1599" d="M495 76.5q-169 101.5 -264.5 281t-95.5 404.5t95.5 405.5t264.5 281.5t382 101q147 0 272 -54t212 -141t126 -186l-154 -67q-59 137 -178 216t-278 79q-168 0 -299.5 -80t-205 -224.5t-73.5 -330.5t73.5 -330.5t205 -223.5t299.5 -79q160 0 278.5 78t177.5 215l154 -68 q-39 -98 -126 -185t-212 -140.5t-272 -53.5q-213 0 -382 101.5z" />
<glyph unicode="D" horiz-adv-x="1519" d="M180 1526h502q225 0 394 -93.5t261.5 -266.5t92.5 -402t-92.5 -402.5t-262.5 -267.5t-393 -94h-502v1526zM682 154q174 0 304 74.5t200.5 212t70.5 323.5q0 184 -70.5 321.5t-201.5 212t-303 74.5h-338v-1218h338z" />
<glyph unicode="E" horiz-adv-x="1253" d="M180 1526h983v-154h-819v-530h778v-154h-778v-534h819v-154h-983v1526z" />
<glyph unicode="F" horiz-adv-x="1189" d="M180 1526h942v-154h-778v-530h717v-154h-717v-688h-164v1526z" />
<glyph unicode="G" horiz-adv-x="1681" d="M495 76.5q-169 101.5 -264.5 281t-95.5 404.5t95.5 405.5t264.5 281.5t382 101q147 0 272 -54t212 -141t126 -186l-148 -71q-57 141 -177 220t-285 79q-168 0 -299.5 -80t-205 -224.5t-73.5 -330.5t73.5 -330.5t205 -223.5t299.5 -79q147 0 268 65.5t190.5 180 t69.5 260.5v10h-528v143h692v-126q0 -197 -92.5 -353.5t-250 -245t-349.5 -88.5q-213 0 -382 101.5z" />
<glyph unicode="H" horiz-adv-x="1507" d="M180 1526h164v-686h819v686h164v-1526h-164v686h-819v-686h-164v1526z" />
<glyph unicode="I" horiz-adv-x="524" d="M180 1526h164v-1526h-164v1526z" />
<glyph unicode="J" horiz-adv-x="784" d="M113 164h82q113 0 179 68.5t66 187.5v1106h164v-1106q0 -193 -110.5 -306.5t-298.5 -113.5h-82v164z" />
<glyph unicode="K" horiz-adv-x="1339" d="M180 1526h164v-832l731 832h205l-567 -645l604 -881h-197l-520 752l-256 -291v-461h-164v1526z" />
<glyph unicode="L" horiz-adv-x="1087" d="M180 1526h164v-1372h676v-154h-840v1526z" />
<glyph unicode="M" horiz-adv-x="1712" d="M180 1526h144l532 -774l533 774h143v-1526h-164v1206l-508 -735h-8l-508 739v-1210h-164v1526z" />
<glyph unicode="N" horiz-adv-x="1507" d="M180 1526h144l839 -1204v1204h164v-1526h-143l-840 1212v-1212h-164v1526z" />
<glyph unicode="O" horiz-adv-x="1798" d="M513 76.5q-175 101.5 -276.5 282t-101.5 405.5t101.5 404.5t276.5 280.5t386 101t385 -101t276.5 -281.5t102.5 -403.5q0 -225 -101.5 -405.5t-276.5 -282t-386 -101.5t-386 101.5zM376 444.5q77 -145.5 214 -230.5t309 -85t309.5 85t214 230.5t76.5 319.5 q0 172 -76.5 317.5t-214 230.5t-309.5 85t-309 -85t-214 -230.5t-77 -317.5q0 -174 77 -319.5z" />
<glyph unicode="P" horiz-adv-x="1316" d="M180 1526h525q147 0 260.5 -58.5t176 -165t62.5 -243.5t-62.5 -242.5t-175 -164t-261.5 -58.5h-361v-594h-164v1526zM713 748q150 0 238.5 83.5t88.5 229.5q0 143 -89 227t-238 84h-369v-624h369z" />
<glyph unicode="Q" horiz-adv-x="1798" d="M513 76.5q-175 101.5 -276.5 282t-101.5 405.5t101.5 404.5t276.5 280.5t386 101t385 -101t276.5 -281.5t102.5 -403.5q0 -156 -51 -294t-144 -243l193 -213l-143 -110l-185 205q-190 -133 -434 -134q-211 0 -386 101.5zM376 444.5q77 -145.5 214 -230.5t309 -85 q184 0 328 96l-355 391l146 109l342 -377q68 84 103.5 190.5t35.5 225.5q0 172 -76.5 317.5t-214 230.5t-309.5 85t-309 -85t-214 -230.5t-77 -317.5q0 -174 77 -319.5z" />
<glyph unicode="R" horiz-adv-x="1312" d="M180 1526h525q147 0 260.5 -58.5t176 -165t62.5 -243.5q0 -162 -84 -276.5t-231 -161.5l356 -621h-192l-336 594h-373v-594h-164v1526zM713 748q150 0 238.5 83.5t88.5 229.5q0 143 -89 227t-238 84h-369v-624h369z" />
<glyph unicode="S" horiz-adv-x="1323" d="M433 29.5q-120 54.5 -203 147.5t-117 208l147 51q33 -98 105.5 -168.5t161.5 -107.5t167 -37q92 0 168 40t119 99.5t43 114.5q0 92 -63.5 168t-174.5 100l-274 64q-156 35 -246 157.5t-90 270.5q0 119 59.5 213t163 147t234.5 53t242.5 -49t188.5 -132t110 -183l-144 -58 q-31 86 -97.5 148.5t-146 94.5t-151.5 32q-84 0 -151.5 -37t-105.5 -96.5t-38 -120.5q0 -94 69.5 -176t172.5 -105l241 -55q176 -41 270.5 -153.5t94.5 -268.5q0 -121 -62.5 -216t-175 -147.5t-256.5 -52.5q-141 0 -261 54.5z" />
<glyph unicode="T" horiz-adv-x="1048" d="M444 1372h-421v154h1003v-154h-418v-1372h-164v1372z" />
<glyph unicode="U" horiz-adv-x="1433" d="M433 42q-124 67 -191.5 185.5t-67.5 270.5v1028h164v-1028q0 -166 104.5 -267.5t274.5 -101.5t274.5 101.5t104.5 267.5v1028h164v-1028q0 -152 -68 -270.5t-191.5 -185.5t-283.5 -67t-284 67z" />
<glyph unicode="V" horiz-adv-x="1335" d="M23 1526h170l475 -1333l473 1333h172l-559 -1526h-172z" />
<glyph unicode="W" horiz-adv-x="2015" d="M23 1526h165l363 -1305l371 1305h174l368 -1301l363 1301h166l-439 -1526h-174l-372 1307l-373 -1307h-174z" />
<glyph unicode="X" horiz-adv-x="1222" d="M518 778l-479 748h184l387 -608l387 608h185l-480 -748l498 -778h-184l-406 637l-407 -637h-180z" />
<glyph unicode="Y" horiz-adv-x="1275" d="M557 709l-534 817h182l434 -662l432 662h182l-532 -817v-709h-164v709z" />
<glyph unicode="Z" horiz-adv-x="1196" d="M45 111l873 1261h-822v154h1037v-111l-871 -1261h889v-154h-1106v111z" />
<glyph unicode="[" horiz-adv-x="645" d="M180 1526h410v-144h-246v-1525h246v-144h-410v1813z" />
<glyph unicode="\" horiz-adv-x="878" d="M4 1608h178l692 -1690h-178z" />
<glyph unicode="]" horiz-adv-x="645" d="M55 -143h246v1525h-246v144h410v-1813h-410v144z" />
<glyph unicode="^" horiz-adv-x="1032" d="M444 1526h144l346 -656h-176l-240 465l-244 -465h-176z" />
<glyph unicode="_" horiz-adv-x="1224" d="M152 0h921v-143h-921v143z" />
<glyph unicode="`" horiz-adv-x="737" d="M211 1606h156l159 -295h-129z" />
<glyph unicode="a" horiz-adv-x="1171" d="M290 15q-83 40 -130 111t-47 159q0 133 87 225t263 121l397 65v58q0 98 -71.5 159.5t-186.5 61.5q-98 0 -174 -49t-115 -131l-139 75q47 106 169 179t259 73q119 0 213 -47t146.5 -131t52.5 -190v-754h-154v158q-55 -82 -157.5 -132.5t-227.5 -50.5q-102 0 -185 40z M335.5 166q59.5 -51 149.5 -51q109 0 195 47t133 130t47 183v82l-360 -59q-115 -18 -169.5 -72.5t-54.5 -134.5q0 -74 59.5 -125z" />
<glyph unicode="b" horiz-adv-x="1366" d="M480.5 28.5q-105.5 53.5 -169.5 149.5v-178h-153v1550h153v-618q68 90 171.5 140t230.5 50q154 0 277.5 -74.5t193 -205.5t69.5 -293t-70.5 -293t-193.5 -206t-276 -75q-127 0 -232.5 53.5zM363.5 336q52.5 -96 142.5 -151.5t199 -55.5t196.5 55.5t138 150.5t50.5 214 t-50.5 214t-138.5 150.5t-196 55.5q-109 0 -199 -55.5t-142.5 -151.5t-52.5 -213t52.5 -213z" />
<glyph unicode="c" horiz-adv-x="1228" d="M372 50q-126 75 -196 206t-70 295q0 162 70 293t196 204.5t287 73.5q152 0 281 -78.5t182 -201.5l-139 -72q-43 90 -130 144.5t-194 54.5q-106 0 -195 -54.5t-141.5 -150.5t-52.5 -215q0 -117 52.5 -213t141.5 -151.5t195 -55.5q109 0 195 54.5t129 148.5l139 -76 q-55 -121 -184 -201t-279 -80q-161 0 -287 75z" />
<glyph unicode="d" horiz-adv-x="1366" d="M377 50q-123 75 -193.5 206t-70.5 293t69.5 293t193.5 205.5t277 74.5q127 0 230.5 -50t171.5 -140v618h153v-1550h-153v178q-63 -96 -169 -149.5t-233 -53.5q-153 0 -276 75zM326.5 335q50.5 -95 138.5 -150.5t197 -55.5t198.5 55.5t142 151.5t52.5 213t-52.5 213 t-142.5 151.5t-198 55.5q-109 0 -197 -55.5t-138.5 -150.5t-50.5 -214t50.5 -214z" />
<glyph unicode="e" horiz-adv-x="1259" d="M381 50q-125 75 -196.5 207t-71.5 296q0 162 68.5 292t189.5 203.5t270 73.5q152 0 266.5 -73.5t177 -194.5t62.5 -254q0 -51 -8 -98h-865q2 -115 56.5 -202t141.5 -134t185 -47q215 0 336 200l131 -69q-53 -117 -179 -196t-288 -79q-151 0 -276 75zM981 645 q0 94 -46 171t-124 120t-170 43q-90 0 -169 -41t-131 -117t-62 -176h702z" />
<glyph unicode="f" horiz-adv-x="804" d="M270 944h-219v154h219v98q0 111 50.5 190.5t134.5 121.5t182 42q53 0 90 -10v-139q-27 6 -74 6q-106 0 -167.5 -50t-61.5 -161v-98h268v-154h-268v-944h-154v944z" />
<glyph unicode="g" horiz-adv-x="1355" d="M384 -377q-126 74 -183 197l141 76q35 -84 121 -138.5t211 -54.5q100 0 185 40t135 117t50 183v176q-61 -96 -164.5 -149.5t-226.5 -53.5q-152 0 -275.5 74t-194 200t-70.5 279q0 154 70.5 280t193.5 199.5t276 73.5q119 0 221.5 -51t169.5 -139v166h154v-1055 q0 -141 -66.5 -254t-185.5 -176.5t-268 -63.5q-168 0 -294 74zM326.5 370q50.5 -91 138.5 -145.5t197 -54.5q104 0 192 54.5t139 146.5t51 198t-51 198.5t-139 147t-192 54.5q-106 0 -195.5 -54.5t-140 -145.5t-50.5 -200q0 -108 50.5 -199z" />
<glyph unicode="h" d="M158 1550h153v-587q49 76 132 117.5t184 41.5q115 0 209 -53t148 -147.5t54 -208.5v-713h-153v653q0 145 -80 230.5t-205 85.5t-207 -86t-82 -230v-653h-153v1550z" />
<glyph unicode="i" horiz-adv-x="468" d="M158 1098h153v-1098h-153v1098zM164 1458.5q29 28.5 72 28.5t71.5 -28.5t28.5 -72.5q0 -43 -28.5 -71.5t-71.5 -28.5t-72 28.5t-29 71.5q0 44 29 72.5z" />
<glyph unicode="j" horiz-adv-x="468" d="M-129 -442v141q43 -6 86 -6q88 0 144.5 53t56.5 152v1200h153v-1200q0 -164 -102.5 -256.5t-255.5 -92.5q-55 1 -82 9zM164 1458.5q29 28.5 72 28.5t71.5 -28.5t28.5 -72.5q0 -43 -28.5 -71.5t-71.5 -28.5t-72 28.5t-29 71.5q0 44 29 72.5z" />
<glyph unicode="k" horiz-adv-x="1122" d="M158 1550h153v-1009l551 557h199l-430 -441l469 -657h-185l-395 545l-209 -215v-330h-153v1550z" />
<glyph unicode="l" horiz-adv-x="468" d="M158 1550h153v-1550h-153v1550z" />
<glyph unicode="m" horiz-adv-x="1859" d="M158 1098h153v-135q49 76 130 117.5t175 41.5q113 0 207.5 -56t145.5 -153q49 100 142 154.5t204 54.5t204 -54t149 -147.5t56 -207.5v-713h-153v653q0 145 -77 230.5t-198 85.5t-199.5 -86t-78.5 -230v-653h-154v653q0 145 -76.5 230.5t-197.5 85.5t-200 -86t-79 -230 v-653h-153v1098z" />
<glyph unicode="n" d="M158 1098h153v-135q49 76 132 117.5t184 41.5q115 0 209 -53t148 -147.5t54 -208.5v-713h-153v653q0 147 -78 231.5t-207 84.5t-209 -85t-80 -231v-653h-153v1098z" />
<glyph unicode="o" horiz-adv-x="1341" d="M390 50q-128 75 -202.5 207t-74.5 294t72.5 292t200.5 204.5t286 74.5t284.5 -73.5t199.5 -204.5t73 -293q0 -166 -75 -297t-203 -205t-279 -74q-154 0 -282 75zM328.5 336q52.5 -96 143.5 -151.5t200 -55.5t199 55.5t142 152.5t52 214t-52 212t-142.5 150.5t-198.5 55.5 q-109 0 -200 -55.5t-143.5 -150.5t-52.5 -212q0 -119 52.5 -215z" />
<glyph unicode="p" horiz-adv-x="1366" d="M158 1098h153v-166q68 90 171.5 140t230.5 50q154 0 277.5 -74.5t193 -205.5t69.5 -293t-70.5 -293t-193.5 -206t-276 -75q-127 0 -232.5 53.5t-169.5 149.5v-588h-153v1508zM363.5 336q52.5 -96 142.5 -151.5t199 -55.5t196.5 55.5t138 150.5t50.5 214t-50.5 214 t-138.5 150.5t-196 55.5q-109 0 -199 -55.5t-142.5 -151.5t-52.5 -213t52.5 -213z" />
<glyph unicode="q" horiz-adv-x="1366" d="M1055 178q-63 -96 -169 -149.5t-233 -53.5q-154 0 -276.5 75t-193 206t-70.5 293t69.5 293t193.5 205.5t277 74.5q127 0 230.5 -50t171.5 -140v166h153v-1508h-153v588zM326.5 335q50.5 -95 138.5 -150.5t197 -55.5t198.5 55.5t142 151.5t52.5 213t-52.5 213 t-142.5 151.5t-198 55.5q-109 0 -197 -55.5t-138.5 -150.5t-50.5 -214t50.5 -214z" />
<glyph unicode="r" horiz-adv-x="692" d="M158 1098h153v-119q43 63 117 98t172 35h70v-154h-97q-121 0 -191.5 -74.5t-70.5 -207.5v-676h-153v1098z" />
<glyph unicode="s" horiz-adv-x="1042" d="M268.5 52q-118.5 77 -174.5 212l129 66q49 -100 134 -157.5t186 -57.5q100 0 166.5 48t66.5 126t-61.5 125t-124.5 53l-158 18q-150 39 -221.5 124t-71.5 196q0 94 49.5 166.5t134.5 111.5t189 39q137 0 248.5 -71.5t159.5 -194.5l-129 -65q-43 90 -120 141t-167 51 q-92 0 -148.5 -46t-56.5 -120q0 -78 54.5 -123t109.5 -51l182 -20q135 -37 212 -127t77 -205q0 -90 -49 -162t-138.5 -113t-203.5 -41q-156 0 -274.5 77z" />
<glyph unicode="t" horiz-adv-x="794" d="M350 74q-80 86 -80 245v625h-202v154h51q68 0 109.5 45t41.5 117v92h154v-254h242v-154h-242v-625q0 -90 41 -139t139 -49q45 0 78 6v-139q-41 -10 -104 -10q-148 0 -228 86z" />
<glyph unicode="u" d="M338 29.5q-94 54.5 -148.5 153t-54.5 223.5v692h154v-674q0 -133 78.5 -214t205.5 -81q129 0 209 85t80 230v654h154v-1098h-154v135q-49 -76 -132 -118t-183 -42q-115 0 -209 54.5z" />
<glyph unicode="v" horiz-adv-x="1058" d="M23 1098h172l333 -889l334 889h174l-432 -1098h-153z" />
<glyph unicode="w" horiz-adv-x="1632" d="M23 1098h174l280 -862l262 862h154l264 -862l281 862h172l-377 -1098h-154l-262 868l-264 -868h-154z" />
<glyph unicode="x" horiz-adv-x="997" d="M408 549l-383 549h188l287 -418l286 418h189l-383 -549l383 -549h-189l-286 418l-287 -418h-190z" />
<glyph unicode="y" horiz-adv-x="1097" d="M461 -2l-438 1102h165l359 -907l358 907h170l-612 -1510h-172z" />
<glyph unicode="z" horiz-adv-x="919" d="M45 133l617 811h-582v154h790v-133l-614 -811h618v-154h-829v133z" />
<glyph unicode="{" horiz-adv-x="649" d="M310 -208q-81 79 -81 210v395q0 70 -32.5 110t-98.5 40h-57v143h57q66 0 98.5 40t32.5 110v397q0 131 81 210t214 79h70v-144h-70q-61 0 -98 -39.5t-33 -105.5v-389q10 -137 -98 -230q49 -41 74.5 -100t23.5 -125v-391q-4 -66 33 -105.5t98 -39.5h70v-144h-70 q-133 0 -214 79z" />
<glyph unicode="|" horiz-adv-x="614" d="M225 1731h164v-2120h-164v2120z" />
<glyph unicode="}" horiz-adv-x="649" d="M55 -143h70q61 0 98 40t33 105v391q-2 66 23.5 125.5t74.5 99.5q-109 92 -98 230v389q4 66 -33 105.5t-98 39.5h-70v144h70q133 0 214 -79t81 -210v-397q0 -70 32.5 -110t98.5 -40h57v-143h-57q-66 0 -98.5 -40t-32.5 -110v-395q0 -131 -81 -210t-214 -79h-70v144z" />
<glyph unicode="~" horiz-adv-x="1265" d="M722 471.5q-48 20.5 -106 58.5q-49 33 -81.5 48.5t-73.5 15.5q-59 0 -98 -36t-50 -101h-137q12 135 83 207.5t183 72.5q63 0 111.5 -20.5t105.5 -59.5q49 -33 82 -48t74 -15q113 0 135 137h137q-12 -137 -77.5 -208.5t-175.5 -71.5q-64 0 -112 20.5z" />
<glyph unicode="&#xa1;" horiz-adv-x="577" d="M217 659h143l11 -1087h-164zM219 1069q29 29 70 29t69.5 -28t28.5 -71t-27.5 -71.5t-70.5 -28.5q-41 0 -70 28.5t-29 71.5q0 41 29 70z" />
<glyph unicode="&#xa2;" horiz-adv-x="1228" d="M573 197q-137 18 -241.5 97t-161.5 201.5t-57 270.5q0 147 57 269t161.5 200t241.5 96v195h144v-193q133 -14 241.5 -90t157.5 -186l-139 -72q-37 76 -104.5 128t-155.5 67v-832q88 14 155.5 66.5t104.5 132.5l139 -76q-49 -111 -157.5 -186.5t-241.5 -89.5v-195h-144 v197zM359 497.5q83 -112.5 214 -143.5v820q-131 -29 -214 -141.5t-83 -268.5q0 -154 83 -266.5z" />
<glyph unicode="&#xa3;" horiz-adv-x="1316" d="M90 143h205v566h-205v133h205v264q0 131 58.5 231.5t165 156.5t245.5 56q188 0 314 -106.5t149 -290.5l-150 -33q-14 137 -98 212t-215 75q-143 0 -224 -80t-81 -221v-264h346v-133h-346v-566h694v-143h-1063v143z" />
<glyph unicode="&#xa4;" horiz-adv-x="1204" d="M113 162l155 155q-76 104 -75 234q0 125 75 233l-155 156l100 100l156 -155q109 76 233 76q127 0 234 -76l155 155l101 -100l-156 -156q76 -109 76 -233q0 -129 -76 -234l156 -155l-101 -101l-155 156q-104 -76 -234 -76q-127 0 -233 76l-156 -156zM421 370.5 q75 -73.5 181 -73.5q104 0 179 73.5t75 180.5q0 70 -35 128t-93 93t-126 35q-106 0 -181 -75t-75 -181q0 -107 75 -180.5z" />
<glyph unicode="&#xa5;" horiz-adv-x="1275" d="M557 313h-276v133h276v185h-276v133h239l-497 762h182l434 -662l432 662h182l-495 -762h237v-133h-274v-185h274v-133h-274v-313h-164v313z" />
<glyph unicode="&#xa6;" horiz-adv-x="614" d="M225 1731h164v-854h-164v854zM225 467h164v-856h-164v856z" />
<glyph unicode="&#xa7;" horiz-adv-x="1083" d="M270 -131q-125 84 -180 227l133 64q51 -109 140.5 -170.5t197.5 -61.5q106 0 177 52.5t71 134.5q0 129 -195 182l-168 49q-301 88 -301 316q0 94 48.5 168.5t132.5 117.5q-180 92 -181 269q0 98 51.5 173.5t140.5 117.5t195 42q145 0 264 -77.5t169 -208.5l-134 -64 q-45 96 -125.5 151.5t-179.5 55.5q-96 0 -156.5 -50t-60.5 -128q0 -76 50.5 -114t121.5 -58l193 -58q139 -41 218 -128t79 -201q0 -88 -47 -161t-129 -116q84 -49 130 -119.5t46 -158.5q0 -94 -52.5 -169t-145.5 -118t-212 -43q-166 0 -291 84zM481 502l164 -49 q74 20 119 72.5t45 123.5q0 143 -195 203l-129 39q-82 -12 -129 -65.5t-47 -131.5q0 -143 172 -192z" />
<glyph unicode="&#xa8;" horiz-adv-x="995" d="M245 1385.5q-34 33.5 -34 84.5q0 49 34 83t85 34q49 0 82.5 -33.5t33.5 -83.5q0 -51 -33.5 -84.5t-82.5 -33.5q-51 0 -85 33.5zM582.5 1553.5q33.5 33.5 85.5 33.5q49 0 82.5 -33.5t33.5 -83.5q0 -51 -33.5 -84.5t-82.5 -33.5q-51 0 -85 33.5t-34 84.5q0 50 33.5 83.5z " />
<glyph unicode="&#xa9;" horiz-adv-x="1832" d="M521 80.5q-181 105.5 -286.5 287t-105.5 396.5q0 213 105.5 393t285.5 286.5t398 106.5q215 0 395 -106.5t285.5 -286.5t105.5 -393q0 -217 -106.5 -397.5t-287 -286t-392.5 -105.5q-216 0 -397 105.5zM358 438.5q86 -147.5 233.5 -233.5t326.5 -86q176 0 323.5 86 t233.5 233.5t86 325.5q0 176 -86 323.5t-233.5 233.5t-323.5 86q-178 0 -326 -86t-234 -233.5t-86 -323.5q0 -178 86 -325.5zM569.5 984q53.5 97 148.5 152.5t212 55.5q125 0 219 -62.5t129 -152.5l-127 -62q-27 63 -84 104.5t-137 41.5q-121 0 -196 -83t-75 -214 q0 -133 75 -216t196 -83q78 0 136 40t85 105l127 -61q-35 -90 -129 -152.5t-219 -62.5q-117 0 -211 55t-148.5 153.5t-54.5 221.5t53.5 220z" />
<glyph unicode="&#xaa;" horiz-adv-x="931" d="M185.5 799.5q-72.5 60.5 -72.5 158.5t65.5 162t192.5 84l254 43v31q0 59 -45 97t-117 38q-63 0 -113.5 -32.5t-73.5 -88.5l-126 64q35 86 123.5 138t193.5 52q137 0 222 -74.5t85 -193.5v-522h-143v94q-43 -51 -108.5 -81t-147.5 -30q-117 0 -189.5 60.5zM306 890 q36 -30 89 -30q100 0 165 62.5t65 156.5v45l-224 -37q-131 -23 -131 -122q0 -45 36 -75z" />
<glyph unicode="&#xab;" horiz-adv-x="1105" d="M59 551l312 389h184l-311 -389l311 -389h-184zM862 940h185l-312 -389l312 -389h-185l-311 389z" />
<glyph unicode="&#xac;" horiz-adv-x="1384" d="M1006 436h-871v154h1024v-508h-153v354z" />
<glyph unicode="&#xad;" horiz-adv-x="1019" d="M152 621h716v-144h-716v144z" />
<glyph unicode="&#xae;" horiz-adv-x="1308" d="M391 627.5q-121 70.5 -191.5 191.5t-70.5 262t70.5 262t191.5 192t264 71q141 0 262 -71t192 -191.5t71 -262.5q0 -141 -71 -262t-191.5 -191.5t-262.5 -70.5q-143 0 -264 70.5zM302 877.5q54 -93.5 147.5 -147.5t205.5 -54q111 0 204 53t147.5 146.5t54.5 205.5 q0 111 -54.5 204t-147.5 147.5t-204 54.5q-113 0 -206 -54.5t-147 -147.5t-54 -204q0 -110 54 -203.5zM455 1360h223q88 0 142 -47t54 -131q0 -111 -94 -158l129 -217h-133l-110 194h-93v-194h-118v553zM678 1108q33 0 54.5 21.5t21.5 52.5t-21.5 51t-54.5 20h-105v-145h105 z" />
<glyph unicode="&#xaf;" horiz-adv-x="954" d="M211 1495h532v-123h-532v123z" />
<glyph unicode="&#xb0;" horiz-adv-x="987" d="M326.5 943q-74.5 42 -117.5 117t-43 165t43 164.5t117.5 117.5t167.5 43q92 0 166.5 -43t117.5 -117.5t43 -164.5t-43 -165t-117.5 -117t-166.5 -42q-93 0 -167.5 42zM351.5 1082.5q56.5 -54.5 140.5 -54.5t142 55.5t58 141.5q0 88 -58.5 143t-141.5 55q-84 0 -140.5 -55 t-56.5 -143t56.5 -142.5z" />
<glyph unicode="&#xb1;" horiz-adv-x="1241" d="M545 651h-436v154h436v352h153v-352h435v-154h-435v-354h-153v354zM109 154h1024v-154h-1024v154z" />
<glyph unicode="&#xb2;" horiz-adv-x="874" d="M82 570l293 315l33 35q123 133 161.5 189.5t38.5 121.5q0 80 -48 125t-128 45q-82 0 -139 -46t-80 -132l-139 39q27 129 126 204.5t232 75.5q147 0 240.5 -83.5t93.5 -215.5q0 -92 -50 -170.5t-161 -199.5l-262 -281h495v-135h-706v113z" />
<glyph unicode="&#xb3;" horiz-adv-x="892" d="M206.5 508.5q-100.5 67.5 -134.5 181.5l133 54q29 -78 90 -121t141 -43q98 0 157.5 56.5t59.5 152.5q0 94 -60.5 149.5t-156.5 55.5q-51 0 -94 -15l-35 72l283 340h-463v135h639v-129l-236 -289q127 -16 204 -102t77 -215q0 -98 -48 -178t-134 -126t-193 -46 q-129 0 -229.5 67.5z" />
<glyph unicode="&#xb4;" horiz-adv-x="737" d="M371 1606h155l-186 -295h-129z" />
<glyph unicode="&#xb5;" d="M135 1098h154v-674q0 -133 78.5 -214t205.5 -81q129 0 209 85t80 230v654h154v-1098h-154v137q-47 -76 -130 -119t-185 -43q-147 0 -258 88v-350h-154v1385z" />
<glyph unicode="&#xb6;" horiz-adv-x="815" d="M260 910q-76 44 -119 120t-43 166t43 166t119 120t166 44h164v-1731h-164v1071q-90 0 -166 44z" />
<glyph unicode="&#xb7;" horiz-adv-x="585" d="M223.5 464.5q-28.5 28.5 -28.5 73.5t28.5 74t69.5 29t69.5 -29t28.5 -74t-27.5 -73.5t-70.5 -28.5q-41 0 -69.5 28.5z" />
<glyph unicode="&#xb8;" horiz-adv-x="790" d="M283 -401.5q-43 8.5 -72 22.5l25 86q57 -23 120 -22q47 0 74 21.5t27 57.5q0 31 -19.5 49.5t-54.5 18.5q-43 0 -84 -20l-41 16l25 213h104l-12 -127q25 4 43 4q70 0 116 -41t46 -106q0 -78 -58.5 -129.5t-156.5 -51.5q-39 0 -82 8.5z" />
<glyph unicode="&#xb9;" horiz-adv-x="618" d="M246 1389h-203v137h360v-1069h-157v932z" />
<glyph unicode="&#xba;" horiz-adv-x="1030" d="M313.5 791.5q-92.5 52.5 -146.5 144.5t-54 207t53 207t146.5 144t203.5 52q111 0 203 -52t145.5 -144.5t53.5 -206.5q0 -115 -54.5 -207t-146.5 -144.5t-201 -52.5q-110 0 -202.5 52.5zM341 956.5q71 -75.5 175 -75.5q102 0 173 74.5t71 187.5t-71 187.5t-173 74.5 q-106 0 -176 -75t-70 -187q0 -111 71 -186.5z" />
<glyph unicode="&#xbb;" horiz-adv-x="1105" d="M862 551l-311 389h184l312 -389l-312 -389h-184zM371 551l-312 389h185l311 -389l-311 -389h-185z" />
<glyph unicode="&#xbc;" horiz-adv-x="1824" d="M207 1399h-164v127h311v-854h-147v727zM1161 1526h168l-914 -1526h-168zM1479 190h-399v123l391 541h151v-541h123v-123h-123v-190h-143v190zM1479 313v357l-254 -357h254z" />
<glyph unicode="&#xbd;" horiz-adv-x="1744" d="M207 1399h-164v127h311v-854h-147v727zM1161 1526h168l-914 -1526h-168zM1088 111l233 245q104 111 140 160t36 98q0 55 -34.5 88t-92.5 33q-57 0 -99 -33.5t-58 -95.5l-131 41q20 100 102 160.5t186 60.5q123 0 199 -67.5t76 -171.5q0 -76 -39 -137.5t-121 -149.5 l-203 -215h377v-127h-571v111z" />
<glyph unicode="&#xbe;" horiz-adv-x="2011" d="M181 714.5q-83 57.5 -109 149.5l127 47q23 -57 67.5 -88.5t102.5 -31.5q70 0 113.5 40.5t43.5 110.5q0 68 -43 108t-114 40q-47 0 -84 -17l-33 70l221 258h-354v125h520v-119l-178 -211q98 -16 155.5 -84t57.5 -168q0 -80 -40 -145.5t-109.5 -103.5t-155.5 -38 q-105 0 -188 57.5zM1348 1526h168l-914 -1526h-168zM1665 190h-399v123l391 541h151v-541h123v-123h-123v-190h-143v190zM1665 313v357l-254 -357h254z" />
<glyph unicode="&#xbf;" horiz-adv-x="1021" d="M290 -402.5q-95 50.5 -147.5 134.5t-52.5 182q0 78 30 142.5t73 114.5t116 122l37 37q82 82 126 152.5t44 156.5v20h164v-20q0 -123 -57.5 -210t-167.5 -191q-72 -68 -110 -110t-64.5 -96.5t-26.5 -117.5q0 -92 67.5 -157.5t182.5 -65.5t196.5 71.5t104.5 190.5l145 -31 q-29 -170 -150.5 -272.5t-295.5 -102.5q-119 0 -214 50.5zM510 1098h164v-226h-164v226z" />
<glyph unicode="&#xc0;" horiz-adv-x="1335" d="M580 1526h176l557 -1526h-172l-131 373h-682l-133 -373h-172zM952 526l-284 807l-287 -807h571zM416 2034h156l159 -295h-129z" />
<glyph unicode="&#xc1;" horiz-adv-x="1335" d="M580 1526h176l557 -1526h-172l-131 373h-682l-133 -373h-172zM952 526l-284 807l-287 -807h571zM762 2034h155l-186 -295h-129z" />
<glyph unicode="&#xc2;" horiz-adv-x="1335" d="M580 1526h176l557 -1526h-172l-131 373h-682l-133 -373h-172zM952 526l-284 807l-287 -807h571zM590 2034h152l233 -295h-139l-170 211l-166 -211h-139z" />
<glyph unicode="&#xc3;" horiz-adv-x="1335" d="M580 1526h176l557 -1526h-172l-131 373h-682l-133 -373h-172zM952 526l-284 807l-287 -807h571zM711.5 1834.5q-31.5 14.5 -66.5 40.5q-4 2 -21.5 14.5t-34 17.5t-30.5 5q-59 0 -67 -82h-111q2 92 48 145.5t118 53.5q47 0 77.5 -14.5t65.5 -40.5q4 -2 21.5 -14.5 t34 -17.5t30.5 -5q61 0 68 82h110q-2 -92 -47 -145.5t-116 -53.5q-48 0 -79.5 14.5z" />
<glyph unicode="&#xc4;" horiz-adv-x="1335" d="M580 1526h176l557 -1526h-172l-131 373h-682l-133 -373h-172zM952 526l-284 807l-287 -807h571zM415 1813.5q-34 33.5 -34 84.5q0 49 34 83t85 34q49 0 82.5 -33.5t33.5 -83.5q0 -51 -33.5 -84.5t-82.5 -33.5q-51 0 -85 33.5zM752.5 1981.5q33.5 33.5 85.5 33.5 q49 0 82.5 -33.5t33.5 -83.5q0 -51 -33.5 -84.5t-82.5 -33.5q-51 0 -85 33.5t-34 84.5q0 50 33.5 83.5z" />
<glyph unicode="&#xc5;" horiz-adv-x="1335" d="M580 1526h176l557 -1526h-172l-131 373h-682l-133 -373h-172zM952 526l-284 807l-287 -807h571zM490.5 1707q-70.5 71 -70.5 173q0 104 70.5 175t177.5 71q104 0 175 -71t71 -175q0 -102 -71 -173t-175 -71q-107 0 -177.5 71zM569.5 1783q38.5 -38 96.5 -38q57 0 96 38 t39 97t-39 98t-96 39t-96 -38t-39 -99q0 -59 38.5 -97z" />
<glyph unicode="&#xc6;" horiz-adv-x="2017" d="M580 1526h1347v-154h-819v-530h778v-154h-778v-534h819v-154h-983v373h-616l-133 -373h-172zM944 526v846h-262l-301 -846h563z" />
<glyph unicode="&#xc7;" horiz-adv-x="1599" d="M850 -25l-10 -102q25 4 43 4q70 0 115.5 -41t45.5 -106q0 -78 -58 -129.5t-157 -51.5q-39 0 -81.5 8.5t-71.5 22.5l24 86q57 -23 121 -22q47 0 74 21.5t27 58.5q0 31 -19.5 49t-54.5 18q-43 0 -84 -20l-41 16l22 199q-178 29 -317 135t-216 272t-77 369q0 225 95.5 405.5 t264.5 281.5t382 101q147 0 272 -54t212 -141t126 -186l-154 -67q-59 137 -178 216t-278 79q-168 0 -299.5 -80t-205 -224.5t-73.5 -330.5t73.5 -330.5t205 -223.5t299.5 -79q160 0 278.5 78t177.5 215l154 -68q-39 -98 -126 -185t-212 -140.5t-272 -53.5h-27z" />
<glyph unicode="&#xc8;" horiz-adv-x="1253" d="M180 1526h983v-154h-819v-530h778v-154h-778v-534h819v-154h-983v1526zM420 2034h156l159 -295h-129z" />
<glyph unicode="&#xc9;" horiz-adv-x="1253" d="M180 1526h983v-154h-819v-530h778v-154h-778v-534h819v-154h-983v1526zM766 2034h155l-186 -295h-129z" />
<glyph unicode="&#xca;" horiz-adv-x="1253" d="M180 1526h983v-154h-819v-530h778v-154h-778v-534h819v-154h-983v1526zM594 2034h152l233 -295h-139l-170 211l-166 -211h-139z" />
<glyph unicode="&#xcb;" horiz-adv-x="1253" d="M180 1526h983v-154h-819v-530h778v-154h-778v-534h819v-154h-983v1526zM419 1813.5q-34 33.5 -34 84.5q0 49 34 83t85 34q49 0 82.5 -33.5t33.5 -83.5q0 -51 -33.5 -84.5t-82.5 -33.5q-51 0 -85 33.5zM756.5 1981.5q33.5 33.5 85.5 33.5q49 0 82.5 -33.5t33.5 -83.5 q0 -51 -33.5 -84.5t-82.5 -33.5q-51 0 -85 33.5t-34 84.5q0 50 33.5 83.5z" />
<glyph unicode="&#xcc;" horiz-adv-x="524" d="M180 1526h164v-1526h-164v1526zM10 2034h156l159 -295h-129z" />
<glyph unicode="&#xcd;" horiz-adv-x="524" d="M180 1526h164v-1526h-164v1526zM357 2034h155l-186 -295h-129z" />
<glyph unicode="&#xce;" horiz-adv-x="524" d="M180 1526h164v-1526h-164v1526zM184 2034h152l233 -295h-139l-170 211l-166 -211h-139z" />
<glyph unicode="&#xcf;" horiz-adv-x="524" d="M180 1526h164v-1526h-164v1526zM9 1813.5q-34 33.5 -34 84.5q0 49 34 83t85 34q49 0 82.5 -33.5t33.5 -83.5q0 -51 -33.5 -84.5t-82.5 -33.5q-51 0 -85 33.5zM346.5 1981.5q33.5 33.5 85.5 33.5q49 0 82.5 -33.5t33.5 -83.5q0 -51 -33.5 -84.5t-82.5 -33.5 q-51 0 -85 33.5t-34 84.5q0 50 33.5 83.5z" />
<glyph unicode="&#xd0;" horiz-adv-x="1519" d="M180 696h-174v133h174v697h502q225 0 394 -93.5t261.5 -266.5t92.5 -402t-92.5 -402.5t-262.5 -267.5t-393 -94h-502v696zM682 154q174 0 304 74.5t200.5 212t70.5 323.5q0 184 -70.5 321.5t-201.5 212t-303 74.5h-338v-543h379v-133h-379v-542h338z" />
<glyph unicode="&#xd1;" horiz-adv-x="1507" d="M180 1526h144l839 -1204v1204h164v-1526h-143l-840 1212v-1212h-164v1526zM797.5 1834.5q-31.5 14.5 -66.5 40.5q-4 2 -21.5 14.5t-34 17.5t-30.5 5q-59 0 -67 -82h-111q2 92 48 145.5t118 53.5q47 0 77.5 -14.5t65.5 -40.5q4 -2 21.5 -14.5t34 -17.5t30.5 -5q61 0 68 82 h110q-2 -92 -47 -145.5t-116 -53.5q-48 0 -79.5 14.5z" />
<glyph unicode="&#xd2;" horiz-adv-x="1798" d="M513 76.5q-175 101.5 -276.5 282t-101.5 405.5t101.5 404.5t276.5 280.5t386 101t385 -101t276.5 -281.5t102.5 -403.5q0 -225 -101.5 -405.5t-276.5 -282t-386 -101.5t-386 101.5zM376 444.5q77 -145.5 214 -230.5t309 -85t309.5 85t214 230.5t76.5 319.5 q0 172 -76.5 317.5t-214 230.5t-309.5 85t-309 -85t-214 -230.5t-77 -317.5q0 -174 77 -319.5zM647 2034h156l159 -295h-129z" />
<glyph unicode="&#xd3;" horiz-adv-x="1798" d="M513 76.5q-175 101.5 -276.5 282t-101.5 405.5t101.5 404.5t276.5 280.5t386 101t385 -101t276.5 -281.5t102.5 -403.5q0 -225 -101.5 -405.5t-276.5 -282t-386 -101.5t-386 101.5zM376 444.5q77 -145.5 214 -230.5t309 -85t309.5 85t214 230.5t76.5 319.5 q0 172 -76.5 317.5t-214 230.5t-309.5 85t-309 -85t-214 -230.5t-77 -317.5q0 -174 77 -319.5zM994 2034h155l-186 -295h-129z" />
<glyph unicode="&#xd4;" horiz-adv-x="1798" d="M513 76.5q-175 101.5 -276.5 282t-101.5 405.5t101.5 404.5t276.5 280.5t386 101t385 -101t276.5 -281.5t102.5 -403.5q0 -225 -101.5 -405.5t-276.5 -282t-386 -101.5t-386 101.5zM376 444.5q77 -145.5 214 -230.5t309 -85t309.5 85t214 230.5t76.5 319.5 q0 172 -76.5 317.5t-214 230.5t-309.5 85t-309 -85t-214 -230.5t-77 -317.5q0 -174 77 -319.5zM821 2034h152l233 -295h-139l-170 211l-166 -211h-139z" />
<glyph unicode="&#xd5;" horiz-adv-x="1798" d="M513 76.5q-175 101.5 -276.5 282t-101.5 405.5t101.5 404.5t276.5 280.5t386 101t385 -101t276.5 -281.5t102.5 -403.5q0 -225 -101.5 -405.5t-276.5 -282t-386 -101.5t-386 101.5zM376 444.5q77 -145.5 214 -230.5t309 -85t309.5 85t214 230.5t76.5 319.5 q0 172 -76.5 317.5t-214 230.5t-309.5 85t-309 -85t-214 -230.5t-77 -317.5q0 -174 77 -319.5zM942.5 1834.5q-31.5 14.5 -66.5 40.5q-4 2 -21.5 14.5t-34 17.5t-30.5 5q-59 0 -67 -82h-111q2 92 48 145.5t118 53.5q47 0 77.5 -14.5t65.5 -40.5q4 -2 21.5 -14.5t34 -17.5 t30.5 -5q61 0 68 82h110q-2 -92 -47 -145.5t-116 -53.5q-48 0 -79.5 14.5z" />
<glyph unicode="&#xd6;" horiz-adv-x="1798" d="M513 76.5q-175 101.5 -276.5 282t-101.5 405.5t101.5 404.5t276.5 280.5t386 101t385 -101t276.5 -281.5t102.5 -403.5q0 -225 -101.5 -405.5t-276.5 -282t-386 -101.5t-386 101.5zM376 444.5q77 -145.5 214 -230.5t309 -85t309.5 85t214 230.5t76.5 319.5 q0 172 -76.5 317.5t-214 230.5t-309.5 85t-309 -85t-214 -230.5t-77 -317.5q0 -174 77 -319.5zM646 1813.5q-34 33.5 -34 84.5q0 49 34 83t85 34q49 0 82.5 -33.5t33.5 -83.5q0 -51 -33.5 -84.5t-82.5 -33.5q-51 0 -85 33.5zM983.5 1981.5q33.5 33.5 85.5 33.5 q49 0 82.5 -33.5t33.5 -83.5q0 -51 -33.5 -84.5t-82.5 -33.5q-51 0 -85 33.5t-34 84.5q0 50 33.5 83.5z" />
<glyph unicode="&#xd7;" horiz-adv-x="1130" d="M119 109l338 337l-336 336l108 109l336 -336l336 336l109 -109l-336 -336l338 -337l-109 -109l-338 338l-338 -338z" />
<glyph unicode="&#xd8;" horiz-adv-x="1798" d="M453 117l-97 -117h-186l174 211q-98 104 -153.5 246.5t-55.5 306.5q0 225 101.5 404.5t276.5 280.5t386 101q123 0 236.5 -35.5t207.5 -103.5l97 115h186l-174 -209q100 -106 155.5 -247.5t55.5 -305.5q0 -225 -101.5 -405.5t-276.5 -282t-386 -101.5q-249 1 -446 142z M338 531.5q39 -109.5 111 -195.5l794 952q-147 109 -344 109q-172 0 -309 -85t-214 -230.5t-77 -317.5q0 -123 39 -232.5zM899 129q172 0 309.5 85t214 230.5t76.5 319.5q0 123 -39 232.5t-112 195.5l-793 -954q151 -109 344 -109z" />
<glyph unicode="&#xd9;" horiz-adv-x="1433" d="M433 42q-124 67 -191.5 185.5t-67.5 270.5v1028h164v-1028q0 -166 104.5 -267.5t274.5 -101.5t274.5 101.5t104.5 267.5v1028h164v-1028q0 -152 -68 -270.5t-191.5 -185.5t-283.5 -67t-284 67zM465 2034h156l159 -295h-129z" />
<glyph unicode="&#xda;" horiz-adv-x="1433" d="M433 42q-124 67 -191.5 185.5t-67.5 270.5v1028h164v-1028q0 -166 104.5 -267.5t274.5 -101.5t274.5 101.5t104.5 267.5v1028h164v-1028q0 -152 -68 -270.5t-191.5 -185.5t-283.5 -67t-284 67zM811 2034h155l-186 -295h-129z" />
<glyph unicode="&#xdb;" horiz-adv-x="1433" d="M433 42q-124 67 -191.5 185.5t-67.5 270.5v1028h164v-1028q0 -166 104.5 -267.5t274.5 -101.5t274.5 101.5t104.5 267.5v1028h164v-1028q0 -152 -68 -270.5t-191.5 -185.5t-283.5 -67t-284 67zM639 2034h152l233 -295h-139l-170 211l-166 -211h-139z" />
<glyph unicode="&#xdc;" horiz-adv-x="1433" d="M433 42q-124 67 -191.5 185.5t-67.5 270.5v1028h164v-1028q0 -166 104.5 -267.5t274.5 -101.5t274.5 101.5t104.5 267.5v1028h164v-1028q0 -152 -68 -270.5t-191.5 -185.5t-283.5 -67t-284 67zM464 1813.5q-34 33.5 -34 84.5q0 49 34 83t85 34q49 0 82.5 -33.5 t33.5 -83.5q0 -51 -33.5 -84.5t-82.5 -33.5q-51 0 -85 33.5zM801.5 1981.5q33.5 33.5 85.5 33.5q49 0 82.5 -33.5t33.5 -83.5q0 -51 -33.5 -84.5t-82.5 -33.5q-51 0 -85 33.5t-34 84.5q0 50 33.5 83.5z" />
<glyph unicode="&#xdd;" horiz-adv-x="1275" d="M557 709l-534 817h182l434 -662l432 662h182l-532 -817v-709h-164v709zM733 2034h155l-186 -295h-129z" />
<glyph unicode="&#xde;" horiz-adv-x="1300" d="M164 1526h164v-297h360q147 0 261 -58.5t176.5 -165t62.5 -243.5t-62.5 -242.5t-175 -164t-262.5 -58.5h-360v-297h-164v1526zM696 451q150 0 239 83.5t89 229.5q0 143 -89 227t-239 84h-368v-624h368z" />
<glyph unicode="&#xdf;" horiz-adv-x="1234" d="M238.5 1341.5q58.5 100.5 160 154.5t230.5 54q127 0 225 -49t152.5 -137t54.5 -205t-49 -208t-138 -136q248 -113 248 -375q0 -131 -59 -231t-169 -154.5t-255 -54.5h-121v143h121q143 0 231 82t88 215t-88 215t-231 82h-121v144h109q119 0 194.5 75.5t75.5 192.5 q0 115 -74.5 186.5t-195.5 71.5q-129 0 -211 -82t-82 -219v-1413h-154v1413q0 135 58.5 235.5z" />
<glyph unicode="&#xe0;" horiz-adv-x="1171" d="M290 15q-83 40 -130 111t-47 159q0 133 87 225t263 121l397 65v58q0 98 -71.5 159.5t-186.5 61.5q-98 0 -174 -49t-115 -131l-139 75q47 106 169 179t259 73q119 0 213 -47t146.5 -131t52.5 -190v-754h-154v158q-55 -82 -157.5 -132.5t-227.5 -50.5q-102 0 -185 40z M335.5 166q59.5 -51 149.5 -51q109 0 195 47t133 130t47 183v82l-360 -59q-115 -18 -169.5 -72.5t-54.5 -134.5q0 -74 59.5 -125zM334 1606h156l159 -295h-129z" />
<glyph unicode="&#xe1;" horiz-adv-x="1171" d="M290 15q-83 40 -130 111t-47 159q0 133 87 225t263 121l397 65v58q0 98 -71.5 159.5t-186.5 61.5q-98 0 -174 -49t-115 -131l-139 75q47 106 169 179t259 73q119 0 213 -47t146.5 -131t52.5 -190v-754h-154v158q-55 -82 -157.5 -132.5t-227.5 -50.5q-102 0 -185 40z M335.5 166q59.5 -51 149.5 -51q109 0 195 47t133 130t47 183v82l-360 -59q-115 -18 -169.5 -72.5t-54.5 -134.5q0 -74 59.5 -125zM680 1606h155l-186 -295h-129z" />
<glyph unicode="&#xe2;" horiz-adv-x="1171" d="M290 15q-83 40 -130 111t-47 159q0 133 87 225t263 121l397 65v58q0 98 -71.5 159.5t-186.5 61.5q-98 0 -174 -49t-115 -131l-139 75q47 106 169 179t259 73q119 0 213 -47t146.5 -131t52.5 -190v-754h-154v158q-55 -82 -157.5 -132.5t-227.5 -50.5q-102 0 -185 40z M335.5 166q59.5 -51 149.5 -51q109 0 195 47t133 130t47 183v82l-360 -59q-115 -18 -169.5 -72.5t-54.5 -134.5q0 -74 59.5 -125zM508 1606h152l233 -295h-139l-170 211l-166 -211h-139z" />
<glyph unicode="&#xe3;" horiz-adv-x="1171" d="M290 15q-83 40 -130 111t-47 159q0 133 87 225t263 121l397 65v58q0 98 -71.5 159.5t-186.5 61.5q-98 0 -174 -49t-115 -131l-139 75q47 106 169 179t259 73q119 0 213 -47t146.5 -131t52.5 -190v-754h-154v158q-55 -82 -157.5 -132.5t-227.5 -50.5q-102 0 -185 40z M335.5 166q59.5 -51 149.5 -51q109 0 195 47t133 130t47 183v82l-360 -59q-115 -18 -169.5 -72.5t-54.5 -134.5q0 -74 59.5 -125zM629.5 1406.5q-31.5 14.5 -66.5 40.5q-4 2 -21.5 14.5t-34 17.5t-30.5 5q-59 0 -67 -82h-111q2 92 48 145.5t118 53.5q47 0 77.5 -14.5 t65.5 -40.5q4 -2 21.5 -14.5t34 -17.5t30.5 -5q61 0 68 82h110q-2 -92 -47 -145.5t-116 -53.5q-48 0 -79.5 14.5z" />
<glyph unicode="&#xe4;" horiz-adv-x="1171" d="M290 15q-83 40 -130 111t-47 159q0 133 87 225t263 121l397 65v58q0 98 -71.5 159.5t-186.5 61.5q-98 0 -174 -49t-115 -131l-139 75q47 106 169 179t259 73q119 0 213 -47t146.5 -131t52.5 -190v-754h-154v158q-55 -82 -157.5 -132.5t-227.5 -50.5q-102 0 -185 40z M335.5 166q59.5 -51 149.5 -51q109 0 195 47t133 130t47 183v82l-360 -59q-115 -18 -169.5 -72.5t-54.5 -134.5q0 -74 59.5 -125zM333 1385.5q-34 33.5 -34 84.5q0 49 34 83t85 34q49 0 82.5 -33.5t33.5 -83.5q0 -51 -33.5 -84.5t-82.5 -33.5q-51 0 -85 33.5zM670.5 1553.5 q33.5 33.5 85.5 33.5q49 0 82.5 -33.5t33.5 -83.5q0 -51 -33.5 -84.5t-82.5 -33.5q-51 0 -85 33.5t-34 84.5q0 50 33.5 83.5z" />
<glyph unicode="&#xe5;" horiz-adv-x="1171" d="M290 15q-83 40 -130 111t-47 159q0 133 87 225t263 121l397 65v58q0 98 -71.5 159.5t-186.5 61.5q-98 0 -174 -49t-115 -131l-139 75q47 106 169 179t259 73q119 0 213 -47t146.5 -131t52.5 -190v-754h-154v158q-55 -82 -157.5 -132.5t-227.5 -50.5q-102 0 -185 40z M335.5 166q59.5 -51 149.5 -51q109 0 195 47t133 130t47 183v82l-360 -59q-115 -18 -169.5 -72.5t-54.5 -134.5q0 -74 59.5 -125zM408.5 1279q-70.5 71 -70.5 173q0 104 70.5 175t177.5 71q104 0 175 -71t71 -175q0 -102 -71 -173t-175 -71q-107 0 -177.5 71zM487.5 1355 q38.5 -38 96.5 -38q57 0 96 38t39 97t-39 98t-96 39t-96 -38t-39 -99q0 -59 38.5 -97z" />
<glyph unicode="&#xe6;" horiz-adv-x="2013" d="M290 15q-83 40 -130 111t-47 159q0 133 87 225t263 121l397 65v58q0 98 -71.5 159.5t-186.5 61.5q-98 0 -174 -49t-115 -131l-139 75q47 106 169 179t259 73q131 0 230.5 -55t146.5 -154q72 98 180.5 153.5t235.5 55.5q152 0 266.5 -73.5t177 -194.5t62.5 -254 q0 -51 -9 -98h-864q2 -115 56.5 -202t141.5 -134t185 -47q215 0 336 200l131 -69q-53 -117 -179 -196t-288 -79q-119 0 -221.5 47.5t-175.5 133.5v-156h-154v160q-55 -82 -157.5 -133.5t-227.5 -51.5q-102 0 -185 40zM335.5 166q59.5 -51 149.5 -51q109 0 195 47t133 130 t47 183v82l-360 -59q-115 -18 -169.5 -72.5t-54.5 -134.5q0 -74 59.5 -125zM1735 645q0 94 -46.5 171t-124 120t-169.5 43q-90 0 -169 -41t-131.5 -117t-62.5 -176h703z" />
<glyph unicode="&#xe7;" horiz-adv-x="1228" d="M606 -442.5q-43 8.5 -71 22.5l24 86q57 -23 121 -22q47 0 73.5 21.5t26.5 58.5q0 31 -19.5 49t-53.5 18q-43 0 -84 -20l-41 16l22 190q-147 12 -260 90t-175.5 204t-62.5 280q0 162 70 293t196 204.5t287 73.5q152 0 281 -78.5t182 -201.5l-139 -72q-43 90 -130 144.5 t-194 54.5q-106 0 -195 -54.5t-141.5 -150.5t-52.5 -215q0 -117 52.5 -213t141.5 -151.5t195 -55.5q109 0 195 54.5t129 148.5l139 -76q-49 -111 -162.5 -187.5t-250.5 -91.5l-11 -104q25 4 43 4q70 0 116 -41t46 -106q0 -78 -58.5 -129.5t-156.5 -51.5q-39 0 -82 8.5z" />
<glyph unicode="&#xe8;" horiz-adv-x="1259" d="M381 50q-125 75 -196.5 207t-71.5 296q0 162 68.5 292t189.5 203.5t270 73.5q152 0 266.5 -73.5t177 -194.5t62.5 -254q0 -51 -8 -98h-865q2 -115 56.5 -202t141.5 -134t185 -47q215 0 336 200l131 -69q-53 -117 -179 -196t-288 -79q-151 0 -276 75zM981 645 q0 94 -46 171t-124 120t-170 43q-90 0 -169 -41t-131 -117t-62 -176h702zM379 1606h156l159 -295h-129z" />
<glyph unicode="&#xe9;" horiz-adv-x="1259" d="M381 50q-125 75 -196.5 207t-71.5 296q0 162 68.5 292t189.5 203.5t270 73.5q152 0 266.5 -73.5t177 -194.5t62.5 -254q0 -51 -8 -98h-865q2 -115 56.5 -202t141.5 -134t185 -47q215 0 336 200l131 -69q-53 -117 -179 -196t-288 -79q-151 0 -276 75zM981 645 q0 94 -46 171t-124 120t-170 43q-90 0 -169 -41t-131 -117t-62 -176h702zM725 1606h155l-186 -295h-129z" />
<glyph unicode="&#xea;" horiz-adv-x="1259" d="M381 50q-125 75 -196.5 207t-71.5 296q0 162 68.5 292t189.5 203.5t270 73.5q152 0 266.5 -73.5t177 -194.5t62.5 -254q0 -51 -8 -98h-865q2 -115 56.5 -202t141.5 -134t185 -47q215 0 336 200l131 -69q-53 -117 -179 -196t-288 -79q-151 0 -276 75zM981 645 q0 94 -46 171t-124 120t-170 43q-90 0 -169 -41t-131 -117t-62 -176h702zM553 1606h152l233 -295h-139l-170 211l-166 -211h-139z" />
<glyph unicode="&#xeb;" horiz-adv-x="1259" d="M381 50q-125 75 -196.5 207t-71.5 296q0 162 68.5 292t189.5 203.5t270 73.5q152 0 266.5 -73.5t177 -194.5t62.5 -254q0 -51 -8 -98h-865q2 -115 56.5 -202t141.5 -134t185 -47q215 0 336 200l131 -69q-53 -117 -179 -196t-288 -79q-151 0 -276 75zM981 645 q0 94 -46 171t-124 120t-170 43q-90 0 -169 -41t-131 -117t-62 -176h702zM378 1385.5q-34 33.5 -34 84.5q0 49 34 83t85 34q49 0 82.5 -33.5t33.5 -83.5q0 -51 -33.5 -84.5t-82.5 -33.5q-51 0 -85 33.5zM715.5 1553.5q33.5 33.5 85.5 33.5q49 0 82.5 -33.5t33.5 -83.5 q0 -51 -33.5 -84.5t-82.5 -33.5q-51 0 -85 33.5t-34 84.5q0 50 33.5 83.5z" />
<glyph unicode="&#xec;" horiz-adv-x="407" d="M127 1098h154v-1098h-154v1098zM-49 1606h156l159 -295h-129z" />
<glyph unicode="&#xed;" horiz-adv-x="407" d="M127 1098h154v-1098h-154v1098zM297 1606h155l-186 -295h-129z" />
<glyph unicode="&#xee;" horiz-adv-x="407" d="M127 1098h154v-1098h-154v1098zM125 1606h152l233 -295h-139l-170 211l-166 -211h-139z" />
<glyph unicode="&#xef;" horiz-adv-x="407" d="M127 1098h154v-1098h-154v1098zM-50 1385.5q-34 33.5 -34 84.5q0 49 34 83t85 34q49 0 82.5 -33.5t33.5 -83.5q0 -51 -33.5 -84.5t-82.5 -33.5q-51 0 -85 33.5zM287.5 1553.5q33.5 33.5 85.5 33.5q49 0 82.5 -33.5t33.5 -83.5q0 -51 -33.5 -84.5t-82.5 -33.5 q-51 0 -85 33.5t-34 84.5q0 50 33.5 83.5z" />
<glyph unicode="&#xf0;" horiz-adv-x="1341" d="M391 49q-131 74 -204.5 204t-73.5 290q0 158 72.5 285.5t199.5 200.5t285 73q98 0 191 -31t163 -100q-20 102 -73.5 192t-129.5 160l-325 -119v121l213 78q-141 82 -310 82q-121 0 -243 -43l-33 137q147 49 283 49q276 0 477 -162l223 82v-123l-131 -47 q125 -139 189.5 -332.5t64.5 -402.5q0 -227 -73 -376.5t-195.5 -220.5t-276.5 -71q-162 0 -293 74zM329.5 332q53.5 -94 144.5 -148.5t198 -54.5q109 0 199 55.5t142 150.5t52 210q0 111 -50 203t-140.5 146t-202.5 54q-113 0 -203 -54t-141.5 -147.5t-51.5 -205.5 q0 -115 53.5 -209z" />
<glyph unicode="&#xf1;" d="M158 1098h153v-135q49 76 132 117.5t184 41.5q115 0 209 -53t148 -147.5t54 -208.5v-713h-153v653q0 147 -78 231.5t-207 84.5t-209 -85t-80 -231v-653h-153v1098zM631.5 1406.5q-31.5 14.5 -66.5 40.5q-4 2 -21.5 14.5t-34 17.5t-30.5 5q-59 0 -67 -82h-111 q2 92 48 145.5t118 53.5q47 0 77.5 -14.5t65.5 -40.5q4 -2 21.5 -14.5t34 -17.5t30.5 -5q61 0 68 82h110q-2 -92 -47 -145.5t-116 -53.5q-48 0 -79.5 14.5z" />
<glyph unicode="&#xf2;" horiz-adv-x="1341" d="M390 50q-128 75 -202.5 207t-74.5 294t72.5 292t200.5 204.5t286 74.5t284.5 -73.5t199.5 -204.5t73 -293q0 -166 -75 -297t-203 -205t-279 -74q-154 0 -282 75zM328.5 336q52.5 -96 143.5 -151.5t200 -55.5t199 55.5t142 152.5t52 214t-52 212t-142.5 150.5t-198.5 55.5 q-109 0 -200 -55.5t-143.5 -150.5t-52.5 -212q0 -119 52.5 -215zM420 1606h156l159 -295h-129z" />
<glyph unicode="&#xf3;" horiz-adv-x="1341" d="M390 50q-128 75 -202.5 207t-74.5 294t72.5 292t200.5 204.5t286 74.5t284.5 -73.5t199.5 -204.5t73 -293q0 -166 -75 -297t-203 -205t-279 -74q-154 0 -282 75zM328.5 336q52.5 -96 143.5 -151.5t200 -55.5t199 55.5t142 152.5t52 214t-52 212t-142.5 150.5t-198.5 55.5 q-109 0 -200 -55.5t-143.5 -150.5t-52.5 -212q0 -119 52.5 -215zM766 1606h155l-186 -295h-129z" />
<glyph unicode="&#xf4;" horiz-adv-x="1341" d="M390 50q-128 75 -202.5 207t-74.5 294t72.5 292t200.5 204.5t286 74.5t284.5 -73.5t199.5 -204.5t73 -293q0 -166 -75 -297t-203 -205t-279 -74q-154 0 -282 75zM328.5 336q52.5 -96 143.5 -151.5t200 -55.5t199 55.5t142 152.5t52 214t-52 212t-142.5 150.5t-198.5 55.5 q-109 0 -200 -55.5t-143.5 -150.5t-52.5 -212q0 -119 52.5 -215zM594 1606h152l233 -295h-139l-170 211l-166 -211h-139z" />
<glyph unicode="&#xf5;" horiz-adv-x="1341" d="M390 50q-128 75 -202.5 207t-74.5 294t72.5 292t200.5 204.5t286 74.5t284.5 -73.5t199.5 -204.5t73 -293q0 -166 -75 -297t-203 -205t-279 -74q-154 0 -282 75zM328.5 336q52.5 -96 143.5 -151.5t200 -55.5t199 55.5t142 152.5t52 214t-52 212t-142.5 150.5t-198.5 55.5 q-109 0 -200 -55.5t-143.5 -150.5t-52.5 -212q0 -119 52.5 -215zM715.5 1406.5q-31.5 14.5 -66.5 40.5q-4 2 -21.5 14.5t-34 17.5t-30.5 5q-59 0 -67 -82h-111q2 92 48 145.5t118 53.5q47 0 77.5 -14.5t65.5 -40.5q4 -2 21.5 -14.5t34 -17.5t30.5 -5q61 0 68 82h110 q-2 -92 -47 -145.5t-116 -53.5q-48 0 -79.5 14.5z" />
<glyph unicode="&#xf6;" horiz-adv-x="1341" d="M390 50q-128 75 -202.5 207t-74.5 294t72.5 292t200.5 204.5t286 74.5t284.5 -73.5t199.5 -204.5t73 -293q0 -166 -75 -297t-203 -205t-279 -74q-154 0 -282 75zM328.5 336q52.5 -96 143.5 -151.5t200 -55.5t199 55.5t142 152.5t52 214t-52 212t-142.5 150.5t-198.5 55.5 q-109 0 -200 -55.5t-143.5 -150.5t-52.5 -212q0 -119 52.5 -215zM419 1385.5q-34 33.5 -34 84.5q0 49 34 83t85 34q49 0 82.5 -33.5t33.5 -83.5q0 -51 -33.5 -84.5t-82.5 -33.5q-51 0 -85 33.5zM756.5 1553.5q33.5 33.5 85.5 33.5q49 0 82.5 -33.5t33.5 -83.5 q0 -51 -33.5 -84.5t-82.5 -33.5q-51 0 -85 33.5t-34 84.5q0 50 33.5 83.5z" />
<glyph unicode="&#xf7;" horiz-adv-x="1257" d="M113 590h1024v-154h-1024v154zM543 211h164v-211h-164v211zM543 1024h164v-211h-164v211z" />
<glyph unicode="&#xf8;" horiz-adv-x="1341" d="M358 70l-57 -70h-174l131 158q-70 78 -107.5 178t-37.5 215q0 162 72.5 292t200.5 204.5t286 74.5q176 0 313 -92l55 68h174l-129 -156q70 -76 107 -176t37 -215q0 -166 -75 -297t-203 -205t-279 -74q-171 1 -314 95zM362 283l519 624q-94 61 -209 62q-109 0 -200 -55.5 t-143.5 -150.5t-52.5 -212q0 -149 86 -268zM672 129q109 0 199 55.5t142 152.5t52 214q0 147 -86 264l-518 -622q96 -64 211 -64z" />
<glyph unicode="&#xf9;" d="M338 29.5q-94 54.5 -148.5 153t-54.5 223.5v692h154v-674q0 -133 78.5 -214t205.5 -81q129 0 209 85t80 230v654h154v-1098h-154v135q-49 -76 -132 -118t-183 -42q-115 0 -209 54.5zM336 1606h156l159 -295h-129z" />
<glyph unicode="&#xfa;" d="M338 29.5q-94 54.5 -148.5 153t-54.5 223.5v692h154v-674q0 -133 78.5 -214t205.5 -81q129 0 209 85t80 230v654h154v-1098h-154v135q-49 -76 -132 -118t-183 -42q-115 0 -209 54.5zM682 1606h155l-186 -295h-129z" />
<glyph unicode="&#xfb;" d="M338 29.5q-94 54.5 -148.5 153t-54.5 223.5v692h154v-674q0 -133 78.5 -214t205.5 -81q129 0 209 85t80 230v654h154v-1098h-154v135q-49 -76 -132 -118t-183 -42q-115 0 -209 54.5zM510 1606h152l233 -295h-139l-170 211l-166 -211h-139z" />
<glyph unicode="&#xfc;" d="M338 29.5q-94 54.5 -148.5 153t-54.5 223.5v692h154v-674q0 -133 78.5 -214t205.5 -81q129 0 209 85t80 230v654h154v-1098h-154v135q-49 -76 -132 -118t-183 -42q-115 0 -209 54.5zM335 1385.5q-34 33.5 -34 84.5q0 49 34 83t85 34q49 0 82.5 -33.5t33.5 -83.5 q0 -51 -33.5 -84.5t-82.5 -33.5q-51 0 -85 33.5zM672.5 1553.5q33.5 33.5 85.5 33.5q49 0 82.5 -33.5t33.5 -83.5q0 -51 -33.5 -84.5t-82.5 -33.5q-51 0 -85 33.5t-34 84.5q0 50 33.5 83.5z" />
<glyph unicode="&#xfd;" horiz-adv-x="1097" d="M643 1606h155l-186 -295h-129z" />
<glyph unicode="&#xfe;" horiz-adv-x="1366" d="M158 1526h153v-594q68 90 171.5 140t230.5 50q154 0 277.5 -74.5t193 -205.5t69.5 -293t-70.5 -293t-193.5 -206t-276 -75q-127 0 -232.5 53.5t-169.5 149.5v-588h-153v1936zM363.5 336q52.5 -96 142.5 -151.5t199 -55.5t196.5 55.5t138 150.5t50.5 214t-50.5 214 t-138.5 150.5t-196 55.5q-109 0 -199 -55.5t-142.5 -151.5t-52.5 -213t52.5 -213z" />
<glyph unicode="&#xff;" horiz-adv-x="1097" d="M296 1385.5q-34 33.5 -34 84.5q0 49 34 83t85 34q49 0 82.5 -33.5t33.5 -83.5q0 -51 -33.5 -84.5t-82.5 -33.5q-51 0 -85 33.5zM633.5 1553.5q33.5 33.5 85.5 33.5q49 0 82.5 -33.5t33.5 -83.5q0 -51 -33.5 -84.5t-82.5 -33.5q-51 0 -85 33.5t-34 84.5q0 50 33.5 83.5z " />
<glyph unicode="&#x131;" horiz-adv-x="407" d="M127 1098h154v-1098h-154v1098z" />
<glyph unicode="&#x152;" horiz-adv-x="2582" d="M513 76.5q-175 101.5 -276.5 282t-101.5 405.5t101.5 404.5t276.5 280.5t386 101q184 0 345 -79.5t265 -223.5v279h983v-154h-819v-530h778v-154h-778v-534h819v-154h-983v279q-104 -143 -265 -223.5t-345 -80.5q-211 0 -386 101.5zM376 444.5q77 -145.5 214 -230.5 t309 -85t309.5 85t214 230.5t76.5 319.5q0 172 -76.5 317.5t-214 230.5t-309.5 85t-309 -85t-214 -230.5t-77 -317.5q0 -174 77 -319.5z" />
<glyph unicode="&#x153;" horiz-adv-x="2222" d="M390 50q-128 75 -202.5 207t-74.5 294t72.5 292t200.5 204.5t286 74.5q154 0 279.5 -71.5t197.5 -196.5q70 125 189.5 196.5t265.5 71.5q152 0 266.5 -73.5t176.5 -194.5t62 -254q0 -51 -8 -98h-864q2 -115 56.5 -202t141.5 -134t185 -47q215 0 336 200l131 -69 q-53 -117 -179 -196t-288 -79q-152 0 -274.5 74t-194.5 201q-74 -129 -201 -202t-278 -73q-154 0 -282 75zM328.5 336q52.5 -96 143.5 -151.5t200 -55.5t199 55.5t142 152.5t52 214t-52 212t-142.5 150.5t-198.5 55.5q-109 0 -200 -55.5t-143.5 -150.5t-52.5 -212 q0 -119 52.5 -215zM1944 645q0 94 -46.5 171t-124 120t-169.5 43q-90 0 -169 -41t-131.5 -117t-62.5 -176h703z" />
<glyph unicode="&#x178;" horiz-adv-x="1275" d="M557 709l-534 817h182l434 -662l432 662h182l-532 -817v-709h-164v709zM386 1813.5q-34 33.5 -34 84.5q0 49 34 83t85 34q49 0 82.5 -33.5t33.5 -83.5q0 -51 -33.5 -84.5t-82.5 -33.5q-51 0 -85 33.5zM723.5 1981.5q33.5 33.5 85.5 33.5q49 0 82.5 -33.5t33.5 -83.5 q0 -51 -33.5 -84.5t-82.5 -33.5q-51 0 -85 33.5t-34 84.5q0 50 33.5 83.5z" />
<glyph unicode="&#x2c6;" horiz-adv-x="1036" d="M440 1606h152l233 -295h-139l-170 211l-166 -211h-139z" />
<glyph unicode="&#x2dc;" horiz-adv-x="995" d="M541.5 1345.5q-31.5 14.5 -66.5 40.5q-4 2 -21.5 14.5t-34 17.5t-30.5 5q-59 0 -67 -82h-111q2 92 48 145.5t118 53.5q47 0 77.5 -14.5t65.5 -40.5q4 -2 21.5 -14.5t34 -17.5t30.5 -5q61 0 68 82h110q-2 -92 -47 -145.5t-116 -53.5q-48 0 -79.5 14.5z" />
<glyph unicode="&#x300;" horiz-adv-x="0" d="M211 1606h156l159 -295h-129z" />
<glyph unicode="&#x301;" horiz-adv-x="0" d="M371 1606h155l-186 -295h-129z" />
<glyph unicode="&#x302;" horiz-adv-x="0" d="M440 1606h152l233 -295h-139l-170 211l-166 -211h-139z" />
<glyph unicode="&#x303;" horiz-adv-x="0" d="M541.5 1345.5q-31.5 14.5 -66.5 40.5q-4 2 -21.5 14.5t-34 17.5t-30.5 5q-59 0 -67 -82h-111q2 92 48 145.5t118 53.5q47 0 77.5 -14.5t65.5 -40.5q4 -2 21.5 -14.5t34 -17.5t30.5 -5q61 0 68 82h110q-2 -92 -47 -145.5t-116 -53.5q-48 0 -79.5 14.5z" />
<glyph unicode="&#x304;" horiz-adv-x="0" d="M211 1495h532v-123h-532v123z" />
<glyph unicode="&#x308;" horiz-adv-x="0" d="M245 1385.5q-34 33.5 -34 84.5q0 49 34 83t85 34q49 0 82.5 -33.5t33.5 -83.5q0 -51 -33.5 -84.5t-82.5 -33.5q-51 0 -85 33.5zM582.5 1553.5q33.5 33.5 85.5 33.5q49 0 82.5 -33.5t33.5 -83.5q0 -51 -33.5 -84.5t-82.5 -33.5q-51 0 -85 33.5t-34 84.5q0 50 33.5 83.5z " />
<glyph unicode="&#x30a;" horiz-adv-x="0" d="M281.5 1279q-70.5 71 -70.5 173q0 104 70.5 175t177.5 71q104 0 175 -71t71 -175q0 -102 -71 -173t-175 -71q-107 0 -177.5 71zM360.5 1355q38.5 -38 96.5 -38q57 0 96 38t39 97t-39 98t-96 39t-96 -38t-39 -99q0 -59 38.5 -97z" />
<glyph unicode="&#x327;" horiz-adv-x="0" d="M283 -401.5q-43 8.5 -72 22.5l25 86q57 -23 120 -22q47 0 74 21.5t27 57.5q0 31 -19.5 49.5t-54.5 18.5q-43 0 -84 -20l-41 16l25 213h104l-12 -127q25 4 43 4q70 0 116 -41t46 -106q0 -78 -58.5 -129.5t-156.5 -51.5q-39 0 -82 8.5z" />
<glyph unicode="&#x2000;" horiz-adv-x="1063" />
<glyph unicode="&#x2001;" horiz-adv-x="2126" />
<glyph unicode="&#x2002;" horiz-adv-x="1063" />
<glyph unicode="&#x2003;" horiz-adv-x="2126" />
<glyph unicode="&#x2004;" horiz-adv-x="708" />
<glyph unicode="&#x2005;" horiz-adv-x="531" />
<glyph unicode="&#x2006;" horiz-adv-x="354" />
<glyph unicode="&#x2007;" horiz-adv-x="354" />
<glyph unicode="&#x2008;" horiz-adv-x="265" />
<glyph unicode="&#x2009;" horiz-adv-x="425" />
<glyph unicode="&#x200a;" horiz-adv-x="118" />
<glyph unicode="&#x2010;" horiz-adv-x="1019" d="M152 621h716v-144h-716v144z" />
<glyph unicode="&#x2011;" horiz-adv-x="1019" d="M152 621h716v-144h-716v144z" />
<glyph unicode="&#x2012;" horiz-adv-x="1019" d="M152 621h716v-144h-716v144z" />
<glyph unicode="&#x2013;" horiz-adv-x="1163" d="M152 621h860v-144h-860v144z" />
<glyph unicode="&#x2014;" horiz-adv-x="1839" d="M152 621h1536v-144h-1536v144z" />
<glyph unicode="&#x2018;" horiz-adv-x="552" d="M216 1448q52 78 153 102v-61q-59 -16 -92 -64.5t-37 -119.5h88v-226h-164v172q0 119 52 197z" />
<glyph unicode="&#x2019;" horiz-adv-x="552" d="M256 1181q33 48 37 119h-88v226h164v-172q0 -119 -52.5 -197t-152.5 -102v61q59 17 92 65z" />
<glyph unicode="&#x201a;" horiz-adv-x="552" d="M256 -120q33 48 37 120h-88v225h164v-172q0 -119 -52.5 -196.5t-152.5 -102.5v62q59 16 92 64z" />
<glyph unicode="&#x201c;" horiz-adv-x="860" d="M523 1448q52 78 153 102v-61q-59 -16 -92 -64.5t-37 -119.5h88v-226h-164v172q0 119 52 197zM164 1251q0 119 52 197t153 102v-61q-59 -16 -92 -64.5t-37 -119.5h88v-226h-164v172z" />
<glyph unicode="&#x201d;" horiz-adv-x="860" d="M563 1181q33 48 37 119h-88v226h164v-172q0 -119 -52.5 -197t-152.5 -102v61q59 17 92 65zM164 1116q59 16 92 64.5t37 119.5h-88v226h164v-172q0 -119 -52.5 -197t-152.5 -102v61z" />
<glyph unicode="&#x201e;" horiz-adv-x="860" d="M256 -120q33 48 37 120h-88v225h164v-172q0 -119 -52.5 -196.5t-152.5 -102.5v62q59 16 92 64zM471 -184q59 16 92 64t37 120h-88v225h164v-172q0 -119 -52.5 -196.5t-152.5 -102.5v62z" />
<glyph unicode="&#x2022;" horiz-adv-x="839" d="M271.5 401.5q-60.5 61.5 -60.5 151.5q0 86 61.5 146.5t149.5 60.5t147.5 -61.5t59.5 -149.5t-60.5 -148.5t-146.5 -60.5q-90 0 -150.5 61.5z" />
<glyph unicode="&#x2026;" horiz-adv-x="1404" d="M223.5 28.5q-28.5 28.5 -28.5 73.5t28.5 74t69.5 29t69.5 -29t28.5 -74t-27.5 -73.5t-70.5 -28.5q-41 0 -69.5 28.5zM633.5 28.5q-28.5 28.5 -28.5 73.5t28.5 74t69.5 29t69.5 -29t28.5 -74t-27.5 -73.5t-70.5 -28.5q-41 0 -69.5 28.5zM1042.5 28.5 q-28.5 28.5 -28.5 73.5t28.5 74t69.5 29t69.5 -29t28.5 -74t-27.5 -73.5t-70.5 -28.5q-41 0 -69.5 28.5z" />
<glyph unicode="&#x202f;" horiz-adv-x="425" />
<glyph unicode="&#x2039;" horiz-adv-x="614" d="M59 551l312 389h184l-311 -389l311 -389h-184z" />
<glyph unicode="&#x203a;" horiz-adv-x="614" d="M371 551l-312 389h185l311 -389l-311 -389h-185z" />
<glyph unicode="&#x2044;" horiz-adv-x="438" d="M592 1526h168l-914 -1526h-168z" />
<glyph unicode="&#x205f;" horiz-adv-x="531" />
<glyph unicode="&#x2081;" horiz-adv-x="618" d="M246 932h-203v137h360v-1069h-157v932z" />
<glyph unicode="&#x2082;" horiz-adv-x="874" d="M82 113l293 315l33 35q123 133 161.5 189.5t38.5 121.5q0 80 -48 125t-128 45q-82 0 -139 -46t-80 -132l-139 39q27 129 126 204.5t232 75.5q147 0 240.5 -83.5t93.5 -215.5q0 -92 -50 -170.5t-161 -199.5l-262 -281h495v-135h-706v113z" />
<glyph unicode="&#x2083;" horiz-adv-x="892" d="M206.5 51.5q-100.5 67.5 -134.5 181.5l133 54q29 -78 90 -121t141 -43q98 0 157.5 56.5t59.5 152.5q0 94 -60.5 149.5t-156.5 55.5q-51 0 -94 -15l-35 72l283 340h-463v135h639v-129l-236 -289q127 -16 204 -102t77 -215q0 -98 -48 -178t-134 -126t-193 -46 q-129 0 -229.5 67.5z" />
<glyph unicode="&#x20ac;" horiz-adv-x="1591" d="M637 46q-133 71 -227.5 198t-133.5 295h-208v133h188q-4 61 -4 92t4 92h-188v133h211q39 164 132 292t226 198.5t291 70.5q193 0 340 -101t211 -280l-146 -61q-51 139 -159.5 219t-249.5 80q-168 0 -298 -113.5t-184 -304.5h545v-133h-569q-4 -61 -4 -92t4 -92h569v-133 h-547q49 -193 177 -306.5t303 -113.5q143 0 251.5 78.5t161.5 218.5l146 -62q-63 -176 -212 -277.5t-343 -101.5q-154 0 -287 71z" />
<glyph unicode="&#x2122;" horiz-adv-x="1972" d="M338 1384h-240v142h633v-142h-235v-774h-158v774zM842 1526h147l307 -420l301 420h150v-916h-158v635l-286 -385h-19l-285 393v-643h-157v916z" />
<glyph unicode="&#x25fc;" horiz-adv-x="1095" d="M0 1096h1096v-1096h-1096v1096z" />
<glyph unicode="&#xfb03;" horiz-adv-x="1996" d="M270 944h-219v154h219v98q0 111 50.5 190.5t134.5 121.5t182 42q53 0 90 -10v-139q-27 6 -74 6q-106 0 -167.5 -50t-61.5 -161v-98h651v98q0 111 50.5 190.5t134 121.5t182.5 42q53 0 90 -10v-139q-27 6 -74 6q-106 0 -167.5 -50t-61.5 -161v-98h641v-1098h-154v944h-487 v-944h-154v944h-651v-944h-154v944z" />
<glyph unicode="&#xfb04;" horiz-adv-x="2078" d="M270 944h-219v154h219v98q0 111 50.5 190.5t134.5 121.5t182 42q53 0 90 -10v-139q-27 6 -74 6q-106 0 -167.5 -50t-61.5 -161v-98h651v98q0 111 50.5 190.5t134 121.5t182.5 42q53 0 90 -10v-139q-27 6 -74 6q-106 0 -167.5 -50t-61.5 -161v-98h538v452h154v-1550h-154 v944h-538v-944h-154v944h-651v-944h-154v944z" />
<glyph horiz-adv-x="737" d="M80 111l233 245q104 111 140 160t36 98q0 55 -34.5 88t-92.5 33q-57 0 -99 -33.5t-58 -95.5l-131 41q20 100 102 160.5t186 60.5q123 0 199 -67.5t76 -171.5q0 -76 -39 -137.5t-121 -149.5l-203 -215h377v-127h-571v111z" />
<glyph horiz-adv-x="817" d="M471 190h-399v123l391 541h151v-541h123v-123h-123v-190h-143v190zM471 313v357l-254 -357h254z" />
<glyph horiz-adv-x="569" d="M207 1399h-164v127h311v-854h-147v727z" />
<glyph horiz-adv-x="755" d="M181 714.5q-83 57.5 -109 149.5l127 47q23 -57 67.5 -88.5t102.5 -31.5q70 0 113.5 40.5t43.5 110.5q0 68 -43 108t-114 40q-47 0 -84 -17l-33 70l221 258h-354v125h520v-119l-178 -211q98 -16 155.5 -84t57.5 -168q0 -80 -40 -145.5t-109.5 -103.5t-155.5 -38 q-105 0 -188 57.5z" />
</font>
</defs>
</svg>
